<?xml version="1.0" encoding="UTF-8"?>
<svg width="29px" height="25px" viewBox="0 0 29 25" version="1.1" xmlns="http://www.w3.org/2000/svg" xmlns:xlink="http://www.w3.org/1999/xlink">
    <title>Bicycle paths icon </title>
    <g id="Page-1" stroke="none" stroke-width="1" fill="none" fill-rule="evenodd">
        <g id="map-icons_fill" transform="translate(-51.000000, -733.000000)" fill="#2B393F">
            <g id="שבילי-אופניים-אייקון" transform="translate(42.000000, 722.000000)">
                <g id="Bicycle-paths-icon-" transform="translate(9.250000, 10.997500)">
                    <path d="M16.4923104,4.58825684 C17.5773226,4.70031162 18.8329671,5.52600347 19.1768201,6.56117152 L19.1777078,6.56384277 C19.7019676,8.15926291 20.268583,9.90844052 21.0110474,11.6824341 C21.626865,11.3913687 22.3808902,11.1635556 23.1059565,11.1635556 C25.7401387,11.1635556 27.8755652,13.3194869 27.8755652,15.978963 C27.8755652,18.638439 25.7401387,20.7943978 23.1059565,20.7943978 C20.4717744,20.7943978 18.3363478,18.638439 18.3363478,15.978963 C18.3363478,14.4104718 18.7861938,13.2449082 19.7664185,12.3955078 L19.4005127,11.4868164 L13.5499075,16.9346695 L12.9229037,16.0101499 L11.4224572,10.6629639 L9.59375,13.0479126 C10.1854097,13.7391674 10.5354614,14.5405273 10.5948486,15.3383179 C10.6542358,16.1361084 10.6542358,16.4894409 10.416837,17.4020741 C9.62811279,19.6765747 7.31359132,21.1899986 4.912533,20.6987139 C2.51147468,20.2074292 0.755614417,18.0213617 1,15.5603027 C1.24438558,13.0992438 3.40954113,11.1635466 5.85941304,11.1632593 C6.8211546,11.1810568 7.72303377,11.4828499 8.47807529,11.9952841 L10.9328003,8.82098389 L10.6914906,7.91804395 C9.34053345,7.79644257 6.36488109,5.90105266 9.11934687,5.82765772 C9.11934687,5.82765772 10.0414637,5.90377222 11.0442672,6.02096714 L11.4224572,6.06677246 C12.6847419,6.22541949 13.9087576,6.61375439 13.451086,6.81866667 C12.7686316,7.12431437 12.3632092,7.39567997 11.9137573,7.58627319 L12.0778809,8.23303223 L18.3363478,8.23303223 C18.0857249,7.63024224 17.8760138,7.13093397 17.7072144,6.73510742 C17.5384149,6.33928088 17.0481195,6.062873 16.2363281,5.90588379 L16.4923104,4.58825684 Z M23.1985879,13.0956242 C21.5417336,13.0956242 20.1985879,14.4387699 20.1985879,16.0956242 C20.1985879,17.7524784 21.5417336,19.0956242 23.1985879,19.0956242 C24.8554421,19.0956242 26.1985879,17.7524784 26.1985879,16.0956242 C26.1985879,14.4387699 24.8554421,13.0956242 23.1985879,13.0956242 Z M5.81694336,13.0956242 C4.16008911,13.0956242 2.81694336,14.4387699 2.81694336,16.0956242 C2.81694336,17.7524784 4.16008911,19.0956242 5.81694336,19.0956242 C7.47379761,19.0956242 8.81694336,17.7524784 8.81694336,16.0956242 C8.81694336,14.4387699 7.47379761,13.0956242 5.81694336,13.0956242 Z M18.7678833,9.74121094 L12.8086548,9.74121094 L14.0845337,14.4216919 L18.9512329,10.1721802 L18.7678833,9.74121094 Z" id="Combined-Shape" fill-rule="nonzero"></path>
                    <path d="M6.06175628,15.5572908 C5.7518525,15.5572908 5.50062585,15.8584103 5.50062585,16.2298602 C5.50264714,16.5660026 5.71358293,16.8475086 5.99220194,16.8858968 L5.99220194,16.8960979 C5.99220194,16.8960979 13.1774302,18.2982222 13.3300389,18.2982222 C14.1242484,18.2982222 14.7680824,17.5265245 14.7680824,16.5745872 C14.7680824,15.6226498 14.1242484,14.8509521 13.3300389,14.8509521 C13.2284954,14.8509521 6.06175628,15.5572908 6.06175628,15.5572908 Z" id="Shape-6"></path>
                </g>
            </g>
        </g>
    </g>
</svg>