<?xml version="1.0" encoding="UTF-8"?>
<svg width="17px" height="22px" viewBox="0 0 17 22" version="1.1" xmlns="http://www.w3.org/2000/svg" xmlns:xlink="http://www.w3.org/1999/xlink">
    <title>child-care icon</title>
    <g id="Page-1" stroke="none" stroke-width="1" fill="none" fill-rule="evenodd">
        <g id="map-icons_fill" transform="translate(-253.000000, -1068.000000)" fill="#2B393F" fill-rule="nonzero">
            <g id="מעונות-ילדים-אייקון-" transform="translate(238.536621, 1056.000000)">
                <g id="child-care-icon" transform="translate(15.000000, 12.000000)">
                    <path d="M8.01611513,0 C9.66479249,0 10.9964165,1.33464357 10.9964165,2.98030138 C10.9964165,4.62897873 9.66177294,5.96060275 8.01611513,5.96060275 C6.37045733,5.96060275 5.03581376,4.62595918 5.03581376,2.98030138 C5.03581376,1.33464357 6.37045733,0 8.01611513,0 L8.01611513,0 Z" id="Path"></path>
                    <path d="M4.85765998,13.5306286 L7.22197201,15.9281558 L5.47968843,17.6704394 L6.87774267,19.1077478 L7.3518129,19.5938963 C8.16709291,20.6718776 6.94115334,21.9521692 5.88430888,21.0614003 L2.78020573,17.896906 C2.31217461,17.2507211 2.1702555,16.538106 2.65338439,15.7288651 L4.85765998,13.5245895 L4.85765998,13.5306286 L4.85765998,13.5306286 Z" id="Path"></path>
                    <path d="M11.1715507,13.5306286 L8.8072387,15.9281558 L10.5495223,17.6704394 L9.15146804,19.1077478 L8.67739781,19.5938963 C7.8621178,20.6718776 9.08805737,21.9521692 10.1449018,21.0614003 L13.2459854,17.8938865 C13.7140165,17.2477016 13.8559357,16.5350865 13.3728068,15.7258456 L11.1685312,13.52157 L11.1685312,13.5306286 L11.1715507,13.5306286 Z" id="Path"></path>
                    <path d="M15.0999926,12.7425246 C14.6138441,13.0958126 13.9978548,12.9297371 13.5811561,12.4979406 L11.2017463,10.0068073 L11.2017463,12.2744935 L4.81840576,12.2744935 L4.81840576,10.0128464 L2.44805461,12.5009602 C2.03739505,12.9297371 1.4153666,13.0958126 0.929218145,12.7455442 C0.443069694,12.3922562 0.255857247,11.6434064 0.684634142,11.2267077 L3.80685463,8.19507389 C4.31413997,7.70288633 5.29247598,6.53431832 5.95375866,6.53431832 L10.1328236,6.53431832 C10.748813,6.53431832 11.7029925,7.69382766 12.2223561,8.19507389 L15.3445766,11.2267077 C15.7733535,11.6403868 15.5801019,12.3892366 15.0999926,12.7425246 L15.0999926,12.7425246 L15.0999926,12.7425246 Z" id="Path"></path>
                </g>
            </g>
        </g>
    </g>
</svg>