<?xml version="1.0" encoding="UTF-8"?>
<svg width="25px" height="30px" viewBox="0 0 25 30" version="1.1" xmlns="http://www.w3.org/2000/svg" xmlns:xlink="http://www.w3.org/1999/xlink">
    <title>Community gardens icon</title>
    <g id="Page-1" stroke="none" stroke-width="1" fill="none" fill-rule="evenodd">
        <g id="map-icons_fill" transform="translate(-270.000000, -506.000000)" fill="#2B393F">
            <g id="גינות-קהילתיות-אייקון-" transform="translate(258.916016, 496.000000)">
                <g id="Community-gardens-icon" transform="translate(11.727539, 10.017857)">
                    <path d="M12.5779431,11.2929784 C12.7138264,10.9930776 12.5779951,10.2352611 12.1496994,10.1565137 C11.6777442,10.0697389 11.0120568,10.4277939 10.487382,10.9713017 C9.11774228,12.4539925 8.1715278,13.8330546 7.6487386,15.108488 C6.8645548,17.0216382 6.30434813,18.6990294 6.86092525,20.7571469 C7.41750236,22.8152643 7.96128248,23.7118973 8.6375556,24.6569435 C9.31382873,25.6019896 10.6856649,28.1220309 10.869141,28.8004913 C10.9914585,29.2527981 11.2123198,30.0695018 11.531725,31.2506021 L16.707419,29.6769589 C16.8420523,28.2704113 16.9527169,27.1081605 17.0394126,26.1902065 C17.1694562,24.8132755 17.422305,23.247771 16.5673483,21.601341 C15.9973771,20.503721 14.9846564,18.6607055 13.5291862,16.0722945 C13.1556999,15.3447276 12.7381152,15.4716921 12.417451,15.5691884 C12.1314717,15.656139 12.0023445,15.9890693 12.1391444,16.4949296 C12.2759443,17.0007899 13.3072803,19.8149693 13.5377108,20.398782 C13.7681414,20.9825947 12.5419046,21.5923597 12.1941239,20.8892689 C11.8524835,20.1985917 11.0280481,18.5509642 10.9992101,17.7852328 C10.9703721,17.0195013 10.9067538,15.4383877 11.8131273,13.3345131 C12.2525549,12.3145136 12.5074935,11.6340021 12.5779431,11.2929784 Z" id="Path-Copy-5" fill-rule="nonzero" transform="translate(11.907018, 20.697084) scale(-1, 1) rotate(-74.000000) translate(-11.907018, -20.697084) "></path>
                    <path d="M12.5700665,9.38111141 C13.0886374,7.6208329 13.6416146,6.44500676 14.2289982,5.85363298 C14.8163818,5.2622592 15.6871233,5.00469516 16.8412226,5.08094086 C17.0193907,6.2554353 16.7207092,7.23308219 15.9451781,8.01388152 C15.169647,8.79468085 14.0446098,9.25042414 12.5700665,9.38111141 Z" id="Path-17-Copy"></path>
                    <path d="M12.0695024,6.4709224 C11.5456961,4.7121947 11.369061,3.42489093 11.5395971,2.6090111 C11.7101332,1.79313127 12.300119,1.10288009 13.3095545,0.538257579 C14.0986544,1.42623423 14.3806236,2.40883151 14.1554623,3.48604941 C13.9303011,4.56326732 13.2349811,5.55822498 12.0695024,6.4709224 Z" id="Path-17-Copy-2"></path>
                    <path d="M7.55980603,7.89909636 C8.07837688,5.94781413 8.63135412,4.64440183 9.21873774,3.98885946 C9.80612136,3.33331709 10.6768628,3.04780538 11.8309621,3.13232432 C12.0091302,4.43426042 11.7104487,5.51798949 10.9349176,6.38351153 C10.1593866,7.24903358 9.03434936,7.75422852 7.55980603,7.89909636 Z" id="Path-17-Copy-3" transform="translate(9.720348, 5.508471) scale(-1, 1) translate(-9.720348, -5.508471) "></path>
                    <path d="M7.3091926,11.9141734 C7.9082768,11.4845675 8.7101817,11.3914885 9.71490729,11.6349364 C10.3596702,10.7568644 11.0876433,10.3178285 11.8988266,10.3178285 C12.7100099,10.3178285 13.4198058,10.7568644 14.0282143,11.6349364 C14.8065859,11.2612708 15.3713017,11.1678544 15.7223618,11.3546872 C16.2489519,11.6349364 16.5538731,11.9159447 16.8045158,12.5066822 C17.3672916,12.5066822 18.3701158,13.2462214 19.8129883,14.7252998 C18.9781219,15.8880112 18.0041759,16.5314198 16.8911501,16.6555255 C16.7826056,16.667583 10.5141864,14.110581 6.79990159,14.7252998 C5.38455142,14.2532338 6.41056631,12.5585823 7.3091926,11.9141734 Z" id="Path-21"></path>
                    <path d="M11.4018429,11.6752727 L11.6490695,7.74999858 L12.2070374,6.4709224 C12.4890459,6.70624905 12.6556694,6.95744004 12.7069079,7.22449539 C12.7581464,7.49155073 12.7125326,7.87106308 12.5700665,8.36303246 L12.5700665,11.6752727 L11.4018429,11.6752727 Z" id="Path-36"></path>
                </g>
            </g>
        </g>
    </g>
</svg>