<?xml version="1.0" encoding="UTF-8"?>
<svg width="25px" height="24px" viewBox="0 0 25 24" version="1.1" xmlns="http://www.w3.org/2000/svg" xmlns:xlink="http://www.w3.org/1999/xlink">
    <title>Garden Fitness icon</title>
    <g id="Page-1" stroke="none" stroke-width="1" fill="none" fill-rule="evenodd">
        <g id="map-icons_fill" transform="translate(-58.000000, -182.000000)">
            <g id="מתקני-כושר-בגינות-אייקון" transform="translate(47.500000, 170.000000)">
                <g id="Garden-Fitness-icon" transform="translate(0.000000, 0.500000)">
                    <g transform="translate(10.500000, 11.500000)">
                        <rect id="Rectangle-path" x="0.5" y="0" width="24" height="24"></rect>
                        <path d="M6.07671875,6.72464844 L6.07671875,17.5329297 C6.07671875,17.9137904 4.04546875,17.9137904 4.04546875,17.5329297 L4.04546875,6.72464844 C4.04546875,6.3437877 6.07671875,6.3437877 6.07671875,6.72464844 Z M20.9751465,6.72464844 L20.9751465,17.5329297 C20.9751465,17.9137904 18.9438965,17.9137904 18.9438965,17.5329297 L18.9438965,6.72464844 C18.9438965,6.3437877 20.9751465,6.3437877 20.9751465,6.72464844 Z M3.4775,8.75589844 L3.4775,15.5019336 C3.47735981,15.8826952 0.446390192,15.8826952 0.44625,15.5019336 L0.44625,8.75589844 C0.44625,8.3750377 3.4775,8.3750377 3.4775,8.75589844 Z M24.5090332,8.75564453 L24.5090332,15.5016797 C24.508893,15.8824413 21.4779234,15.8824413 21.4777832,15.5016797 L21.4777832,8.75564453 C21.4777832,8.37478379 24.5090332,8.37478379 24.5090332,8.75564453 Z M18.4697266,11.5769043 L18.4697266,12.9926758 L6.52383179,12.9926758 L6.52383179,11.5769043 L18.4697266,11.5769043 Z" id="Combined-Shape" fill="#2B393F"></path>
                    </g>
                </g>
            </g>
        </g>
    </g>
</svg>