<?xml version="1.0" encoding="utf-8"?>
<!-- Generator: Adobe Illustrator 26.0.3, SVG Export Plug-In . SVG Version: 6.00 Build 0)  -->
<svg version="1.1" id="Layer_1" xmlns="http://www.w3.org/2000/svg" xmlns:xlink="http://www.w3.org/1999/xlink" x="0px" y="0px"
	 viewBox="0 0 841.89 595.28" style="enable-background:new 0 0 841.89 595.28;" xml:space="preserve">
<style type="text/css">
	.st0{fill:#FFEF20;}
	.st1{clip-path:url(#SVGID_00000049211625008308503580000002261948125005394363_);fill:#FFEF20;}
	.st2{clip-path:url(#SVGID_00000049211625008308503580000002261948125005394363_);fill:#FFFFFF;}
</style>
<polygon class="st0" points="250.46,187.82 273.72,187.82 267.63,222.61 244.37,222.61 "/>
<polygon class="st0" points="282.09,187.82 305.35,187.82 299.27,222.61 276.01,222.61 "/>
<g>
	<defs>
		<rect id="SVGID_1_" x="108.96" y="98.21" width="624.05" height="398.55"/>
	</defs>
	<clipPath id="SVGID_00000023257471777259102090000002665924464249626784_">
		<use xlink:href="#SVGID_1_"  style="overflow:visible;"/>
	</clipPath>
	<path style="clip-path:url(#SVGID_00000023257471777259102090000002665924464249626784_);fill:#FFEF20;" d="M718.11,331.05v-92.19
		h-95.78v20.93h69.38v71.27h-69.38v20.93h110.67v-20.93H718.11z M576.52,298.62c0,24.89-6.41,32.43-28.28,32.43h-31.11v-71.27h59.39
		V298.62z M595.75,238.86H478.86v20.93h11.88v92.19h59.95c36.58,0,52.22-11.69,52.22-51.85v-53.92
		C602.92,241.49,600.28,238.86,595.75,238.86 M432.67,351.98h26.4V238.86h-46.19v20.93h19.8V351.98z M359.9,238.86h-78.62v20.93
		h10.37v42.99h25.26v-42.99h34.5c14.52,0,18.48,5.85,18.48,22.44v48.83h-88.61v20.93h115.01V280.9
		C396.29,251.11,387.61,238.86,359.9,238.86 M217.37,238.86v20.93h18.1v52.04c0,13.95-5.66,19.23-20.17,19.23h-17.53v-92.19h-25.45
		v92.19h-17.35c-14.71,0-20.36-5.28-20.36-19.23v-52.04h18.1v-20.93h-43.74v74.85c0,28.09,10.56,38.27,40.35,38.27h71.46
		c29.79,0,40.35-10.18,40.35-38.27v-74.85H217.37z"/>
	<path style="clip-path:url(#SVGID_00000023257471777259102090000002665924464249626784_);fill:#FFFFFF;" d="M663.25,211.33h46.57
		c4.71,0,7.35-2.64,7.35-7.35V98.21h-49.4v21.12h23v71.08h-27.53V211.33z M640.44,98.21h-39.21v20.93h20.17v48.27
		c0,16.21-6.79,23-23.57,23H580.3V98.21h-48.08v20.93h21.68v71.27h-24.7v20.93h73.53c28.85,0,45.06-10.37,45.06-43.93v-61.84
		C647.79,100.85,645.15,98.21,640.44,98.21 M487.35,166.84h26.39V98.21h-49.77v20.93h23.38V166.84z M418.73,190.4h-59.2v-71.27h59.2
		V190.4z M437.39,98.21H321.44v20.93h11.69v92.19h111.99v-105.2C445.12,101.04,442.1,98.21,437.39,98.21"/>
	<path style="clip-path:url(#SVGID_00000023257471777259102090000002665924464249626784_);fill:#FFFFFF;" d="M732.68,496.76v-31.25
		c0-4.4-4.85-9.58-9.1-9.58h-21.85v7.83h8.24l-1.33,1.12c-1.33,1.12-2.19,2.31-2.59,4.27l-5.45,27.62h8.04l6.51-33h8.24
		c0.8,0,1.93,1.26,1.93,2.03v23.14h-9.7v7.83H732.68z M692.57,487.18v-21.67c0-4.4-4.85-9.58-9.1-9.58h-6.38l-3.99,19.86h6.64
		l2.46-12.1h1.26c0.8,0,1.93,1.33,1.93,2.1v21.12c0,0.84-1.26,2.03-1.99,2.03h-13.55v-33h-7.31v40.83h20.92
		C687.65,496.76,692.57,491.66,692.57,487.18 M653.24,487.18v-31.25h-7.37v30.97c0,0.84-1.26,2.03-1.99,2.03h-9.03v-33h-7.44v26.92
		c0,2.45,0.27,3.43,1.39,4.76l1.13,1.33h-8.24v7.83h22.45C648.33,496.76,653.24,491.66,653.24,487.18 M605.69,488.93h-13.55v-25.17
		h11.62c0.8,0,1.93,1.26,1.93,2.03V488.93z M613.06,496.76v-31.25c0-4.4-4.85-9.58-9.1-9.58H584.7v40.83H613.06z M534.68,473.34
		h-7.44v23.42h7.44V473.34z M555.47,496.76v-40.83h-28.23v7.83h20.79v33H555.47z M517.95,487.18v-31.25h-7.37v30.97
		c0,0.84-1.26,2.03-1.99,2.03h-9.03v-33h-7.44v26.92c0,2.45,0.27,3.43,1.39,4.76l1.13,1.33h-8.24v7.83h22.45
		C513.03,496.76,517.95,491.66,517.95,487.18 M478.43,475.65v-19.72h-12.49v7.83h5.05v11.89H478.43z M457.64,496.76v-40.83h-25.97
		v7.83h18.53v33H457.64z M424.36,475.65v-19.72h-12.49v7.83h5.05v11.89H424.36z M404.23,475.65v-19.72h-12.49v7.83h5.05v11.89
		H404.23z M362.65,473.34h-7.44v23.42h7.44V473.34z M383.44,496.76v-40.83h-28.23v7.83h20.79v33H383.44z"/>
	<path style="clip-path:url(#SVGID_00000023257471777259102090000002665924464249626784_);fill:#FFFFFF;" d="M732.68,429.64v-40.83
		H700.4v7.83h4.78v23.56c0,0.63-1,1.61-1.59,1.61h-4.38v7.83h6.04c3.39,0,7.37-4.05,7.37-7.62v-25.38h12.62v33H732.68z
		 M691.44,429.64v-31.25c0-4.4-4.85-9.58-9.1-9.58h-19.2v40.83h7.44v-33h11.49c0.8,0,1.93,1.26,1.93,2.03v30.97H691.44z
		 M655.17,429.64v-7.83h-3.45v-33h-25.77v7.83h18.33v25.17h-18.33v7.83H655.17z M616.58,429.64v-40.83h-12.49v7.83h5.05v33H616.58z
		 M596.12,429.64v-40.83h-25.97v7.83h18.53v33H596.12z M541.72,406.22h-7.44v23.42h7.44V406.22z M562.51,429.64v-40.83h-28.23v7.83
		h20.79v33H562.51z M506.72,429.64v-7.83h-3.45v-33H477.5v7.83h18.33v25.17H477.5v7.83H506.72z M461.09,419.78
		c0,0.84-1.2,2.03-1.93,2.03h-9.7c-0.73,0-1.93-1.19-1.93-2.03v-23.14h11.62c0.8,0,1.93,1.26,1.93,2.03V419.78z M468.53,420.06
		v-21.67c0-4.4-4.85-9.58-9.1-9.58H440.1v31.25c0,4.48,4.92,9.58,9.1,9.58h10.23C463.62,429.64,468.53,424.54,468.53,420.06
		 M430.74,429.64v-40.83h-12.49v7.83h5.05v33H430.74z M410.28,420.06v-21.67c0-4.4-4.85-9.58-9.1-9.58h-19.2v24.75h13.48v-7.41
		h-6.04v-9.51h11.49c0.8,0,1.93,1.26,1.93,2.03v21.12c0,0.77-1.13,2.03-1.93,2.03h-18.93v7.83h19.2
		C405.43,429.64,410.28,424.47,410.28,420.06 M377.6,388.81h-8.77l-3.32,19.79h5.51L377.6,388.81z M365.71,388.81h-8.77l-3.32,19.79
		h5.51L365.71,388.81z M347.31,420.06v-31.25h-7.17v30.97c0,0.84-1.26,2.03-1.99,2.03h-19.26v-33h-7.17v40.83h26.5
		C342.4,429.64,347.31,424.54,347.31,420.06 M332.9,410.97v-22.16h-6.64v22.65l-0.93,3.64l3.45,2.45l2.92-3.15
		C332.7,413.35,332.9,412.58,332.9,410.97 M282.42,429.64v-40.83h-12.49v7.83h5.05v33H282.42z M262.96,429.64v-7.83h-3.45v-33
		h-25.77v7.83h18.33v25.17h-18.33v7.83H262.96z M224.77,429.64v-31.25c0-4.4-4.85-9.58-9.1-9.58h-19.2v40.83h7.44v-33h11.49
		c0.8,0,1.93,1.26,1.93,2.03v30.97H224.77z M187.84,429.64l-2.52-13.28v-27.55h-13.88v7.83h6.44v17.9c0,0.42-5.05,7.27-5.18,7.27
		h-5.05v7.83h4.52c2.52,0,2.92-0.14,4.05-1.75l3.19-4.55l1.4,6.29H187.84z M160.87,408.52v-19.72h-12.49v7.83h5.05v11.89H160.87z
		 M133.04,421.81h-13.55v-25.17h11.62c0.8,0,1.93,1.26,1.93,2.03V421.81z M140.41,429.64v-31.25c0-4.4-4.85-9.58-9.1-9.58h-19.26
		v40.83H140.41z"/>
</g>
</svg>
