<?xml version="1.0" encoding="UTF-8"?>
<svg width="26px" height="22px" viewBox="0 0 26 22" version="1.1" xmlns="http://www.w3.org/2000/svg" xmlns:xlink="http://www.w3.org/1999/xlink">
    <title>SHELTER_icon</title>
    <g id="Page-1" stroke="none" stroke-width="1" fill="none" fill-rule="evenodd">
        <g id="map-icons_fill" transform="translate(-158.000000, -851.000000)" fill="#2B393F">
            <g id="מקלט-אייקון-" transform="translate(147.036621, 839.000000)">
                <g id="SHELTER_icon" transform="translate(11.046315, 12.627335)">
                    <g id="Shelter" transform="translate(0.046315, 0.816788)">
                        <path d="M11.9001646,0.236258056 L12.0392246,0.376258056 L12.0459695,0.370703292 L23.2139282,7.5924683 L22.0229492,8.78344727 L21.1142246,8.19625806 L21.1149894,19.8395774 L19.4306908,19.8395774 L19.4302246,7.10725806 L11.8462246,2.20325806 L4.14122459,7.01625806 L4.14166371,19.8395774 L2.4573651,19.8395774 L2.45722459,8.06825806 L1.31320356,8.78344727 L0.122224594,7.5924683 L11.9001646,0.236258056 Z" id="Combined-Shape"></path>
                    </g>
                    <g id="MAN" transform="translate(4.453685, 5.000000)" fill-rule="nonzero">
                        <path d="M7.4,4.8 C6.08,4.8 5,3.72 5,2.4 C5,1.08 6.08,0 7.4,0 C8.72,0 9.8,1.08 9.8,2.4 C9.8,3.72 8.72,4.8 7.4,4.8 Z" id="Path"></path>
                        <path d="M4.00343519,15.5876385 L4.00343519,9.72 C3.64343519,9.84 3.40343519,9.96 3.28343519,10.08 C2.94932557,10.3384622 2.50261971,10.6664691 2.15382251,11.3667302 C1.83866091,11.999463 -0.376564813,9.864 1.73543519,8.052 C3.05543519,6.972 5.04099333,6.06278967 7.54631453,5.96282152 L7.91819627,5.98380625 C10.2485277,6.15413767 12.1031939,7.026 13.3571939,8.052 C15.4691939,9.864 13.2539682,11.999463 12.9388066,11.3667302 C12.5900094,10.6664691 12.1433035,10.3384622 11.8091939,10.08 C11.6891939,9.96 11.4491939,9.84 11.0891939,9.72 L11.0891939,9.72 L11.0891939,15.5876385 L11.0891939,15.5876385 L4.00343519,15.5876385 L4.00343519,15.5876385 Z" id="Combined-Shape"></path>
                    </g>
                </g>
            </g>
        </g>
    </g>
</svg>