<?xml version="1.0" encoding="UTF-8"?>
<svg width="23px" height="17px" viewBox="0 0 23 17" version="1.1" xmlns="http://www.w3.org/2000/svg" xmlns:xlink="http://www.w3.org/1999/xlink">
    <title>sport_icon</title>
    <g id="Page-1" stroke="none" stroke-width="1" fill="none" fill-rule="evenodd">
        <g id="map-icons_fill" transform="translate(-59.000000, -285.000000)" fill="#2B393F">
            <g id="ספורט-אייקון-" transform="translate(47.500000, 271.000000)">
                <g id="sport_icon" transform="translate(12.000000, 14.500000)">
                    <path d="M0.303865111,15.6055094 L0.303865111,0.62125651 L21.9037212,0.62125651 L21.9037212,15.6055094 L0.303865111,15.6055094 Z M1.33786511,3.06325651 L1.33786511,5.66425651 L3.1843886,5.63285472 L3.27549604,10.8523966 L1.33841101,10.8862085 L1.33786511,13.5452565 L1.51420191,13.542821 C4.30914249,13.4295022 6.54023394,11.1278418 6.54023394,8.30508199 C6.54023394,5.48232221 4.30914249,3.18066177 1.51420191,3.06734297 L1.33786511,3.06325651 Z M20.8688651,3.06625651 L21.0370043,3.0629705 C18.2142445,3.0629705 15.9125841,5.29406195 15.7992653,8.08900253 L15.7948928,8.30508199 C15.7948928,11.1278418 18.0259843,13.4295022 20.8209249,13.542821 L20.8688651,13.5432565 L20.8691753,10.8870036 L18.9317952,10.8870036 L18.9317952,5.66666667 L20.8691753,5.66666667 L20.8688651,3.06625651 Z M8.93325919,8.30508199 C8.93325919,9.3507373 9.65841145,10.2270242 10.6332628,10.4584896 L10.6332628,6.15167438 C9.65841145,6.38313974 8.93325919,7.25942667 8.93325919,8.30508199 Z M11.668718,6.15383899 L11.668718,10.456325 C12.6390132,10.221606 13.3596899,9.34750554 13.3596899,8.30508199 C13.3596899,7.26265844 12.6390132,6.38855797 11.668718,6.15383899 Z M20.8691753,7.02067057 L20.2295247,7.02067057 L20.2295247,9.6778361 L20.8691753,9.6778361 L20.8691753,7.02067057 Z M1.90795964,6.86448654 L1.33786511,6.87425651 L1.33786511,9.53225651 L1.95433357,9.52124737 L1.90795964,6.86448654 Z" id="Combined-Shape"></path>
                </g>
            </g>
        </g>
    </g>
</svg>