<?xml version="1.0" encoding="UTF-8"?><svg id="a" xmlns="http://www.w3.org/2000/svg" viewBox="0 0 626.28 89.74"><defs><style>.b{fill:#00b2d9;}.c{fill:#0068aa;}.d{fill:#04a0d8;}.e{fill:#ee3f32;}.f{fill:#69b451;}.g{fill:#ef7b2c;}.h{fill:#0a994a;}.i{fill:#0071b1;}.j{fill:#f9c023;}.k{fill:#abc737;}</style></defs><path class="d" d="M45.53,32.38v-10.33h-6.83v-2.46h9.3l-.02,12.79h-2.45Zm-6.85-.01v-7.33h2.47v7.34h-2.47Z"/><polygon class="d" points="55.95 32.4 55.96 22.07 49.86 22.06 49.86 19.61 58.42 19.62 58.4 32.4 55.95 32.4"/><path class="d" d="M66.26,32.41h-5.78v-2.46l5.7,.03c.24,0,.65-.37,.65-.63v-6.63c.01-.23-.36-.63-.62-.63h-5.71v-2.46h5.78c1.4,0,3,1.63,3,3.01v6.78c-.01,1.4-1.63,2.99-3.01,2.99"/><path class="d" d="M80.24,32.43h-8.73l.02-12.79h2.36v10.33h6.33c.24,0,.66-.36,.66-.62v-9.7h2.38v9.78c-.02,1.4-1.64,3-3.02,2.99m-2.14-4.77l-.96,.98-1.13-.77,.31-1.14v-7.09h2.2v6.94c0,.5-.08,.74-.41,1.07"/><path class="d" d="M92.39,32.45l.02-10.33h-6.85v-2.46h9.3l-.02,12.79h-2.45Zm-6.85-.02v-7.33h2.46v7.33h-2.46Z"/><polygon class="d" points="102.87 32.46 100.35 32.46 103.32 22.14 96.82 22.13 96.83 16.15 99.28 16.16 99.28 19.68 105.97 19.69 105.97 21.68 102.87 32.46"/><path class="d" d="M113.83,32.48v-12.78h6.36c1.4,.01,2.99,1.63,2.99,3.01v9.78h-9.35Zm6.93-9.7c0-.24-.37-.64-.63-.64h-3.83v7.87h4.45v-7.23Z"/><polygon class="d" points="126.82 25.89 126.82 22.17 125.16 22.17 125.16 19.72 129.28 19.72 129.27 25.89 126.82 25.89"/><polygon class="d" points="132.68 25.9 132.69 22.18 131.03 22.18 131.03 19.72 135.14 19.73 135.13 25.9 132.68 25.9"/><path class="d" d="M139.46,32.52h-2.54v-2.46h2c.2,0,.53-.31,.53-.5v-7.37h-1.94v-2.45h4.4l-.02,10.4c0,1.12-1.32,2.38-2.43,2.38"/><path class="d" d="M150.51,32.53h-6.32v-2.46h6.24c.26,0,.64-.39,.64-.62v-6.61c.01-.24-.36-.63-.62-.63h-3.78v2.97h1.99v2.32h-4.44v-7.76h6.33c1.4,.02,2.99,1.63,2.99,3.01v6.78c-.01,1.38-1.61,3-3.01,2.99"/><polygon class="d" points="157.14 32.54 157.16 22.21 155.49 22.21 155.5 19.76 159.61 19.77 159.59 32.54 157.14 32.54"/><path class="d" d="M169.61,32.56l-4.91-8.12v8.12h-2.48v-7.68c.01-.55,.19-.93,.63-1.29l.87-.68-1.9-3.13h2.82l4.96,8.24v-8.23h2.48v7.14c0,.9-.32,1.27-.98,1.7l-.75,.51,2.06,3.44h-2.8Z"/><polygon class="d" points="55.64 52.61 55.65 42.28 49.55 42.27 49.55 39.82 58.11 39.83 58.09 52.61 55.64 52.61"/><polygon class="d" points="61.73 46.01 61.74 42.29 60.07 42.29 60.08 39.83 64.19 39.84 64.18 46.01 61.73 46.01"/><path class="d" d="M73.43,52.63h-7.4v-2.46h2.72l-.37-.41c-.37-.41-.46-.72-.46-1.49v-8.42h2.46l-.02,10.33h2.98c.24,0,.65-.36,.65-.63l.02-9.7h2.43v9.78c-.02,1.4-1.64,3-3.01,2.99"/><path class="d" d="M85.57,52.65v-10.33h-6.83v-2.46h9.3l-.02,12.79h-2.45Zm-6.85-.01v-7.33h2.46v7.33h-2.46Z"/><polygon class="d" points="97.47 46.06 97.47 42.34 95.81 42.34 95.82 39.88 99.92 39.89 99.92 46.06 97.47 46.06"/><polygon class="d" points="101.99 52.67 101.99 50.22 108.03 50.24 108.04 42.35 102 42.35 102.01 39.89 110.49 39.91 110.48 50.24 111.62 50.24 111.61 52.69 101.99 52.67"/><path class="d" d="M120.46,52.7l.02-9.69c0-.24-.37-.63-.64-.63h-3.78v10.32h-2.47l.02-12.78h6.33c1.4,.01,3,1.64,2.99,3.01v9.78h-2.46Z"/><polygon class="d" points="130.87 52.71 130.89 42.38 124.78 42.37 124.78 39.93 133.34 39.94 133.32 52.71 130.87 52.71"/><polygon class="d" points="147.15 52.74 144.64 52.73 147.6 42.41 141.11 42.4 141.12 36.43 143.57 36.43 143.56 39.95 150.25 39.96 150.25 41.95 147.15 52.74"/><path class="d" d="M157.87,52.75h-5.78v-2.45l5.7,.02c.24,0,.65-.37,.65-.63v-6.63c.01-.24-.36-.63-.62-.63h-5.71v-2.46h5.78c1.4,0,2.99,1.63,2.99,3.01v6.78c-.01,1.4-1.63,3-3.02,2.99"/><polygon class="d" points="163.02 52.76 163.02 50.31 169.06 50.32 169.08 42.44 163.03 42.43 163.04 39.98 171.53 39.99 171.51 50.32 172.65 50.32 172.65 52.77 163.02 52.76"/><rect class="i" x="0" y="70.7" width="3.91" height="3.92"/><path class="i" d="M6.28,74.63l.02-15.35H14.45c2.08,.01,4.2,2.09,4.2,4.22l-.02,11.15-12.35-.02Zm8.14-11.19c0-.11-.13-.24-.24-.24h-3.63v7.51h3.85v-7.27Z"/><polygon class="i" points="22.74 66.71 22.75 63.22 20.75 63.21 20.75 59.29 27.01 59.31 26.99 66.72 22.74 66.71"/><polygon class="i" points="30.83 66.72 30.84 63.23 28.84 63.22 28.84 59.31 35.1 59.32 35.09 66.73 30.83 66.72"/><path class="i" d="M48.69,74.69l-10.93-.02,.02-15.35h3.89v11.44h7.11c.11,0,.23-.12,.23-.23l.02-11.2h3.89v11.15c-.02,2.08-2.1,4.21-4.23,4.2m-2.3-6.31l-1.69,1.29-1.65-1.56,.42-1.37v-7.41h3.8v7.31c-.01,.81-.28,1.29-.88,1.74"/><path class="i" d="M63.75,74.71h-8.17v-3.93h7.89c.1,.01,.24-.12,.24-.22v-7.04c0-.1-.12-.24-.23-.24h-3.76v1.99h1.94v3.6h-6.08v-9.52h8.19c2.08,.02,4.2,2.09,4.2,4.22v6.94c-.01,2.08-2.09,4.2-4.22,4.2"/><polygon class="i" points="71.71 74.72 71.72 63.29 69.99 63.29 70 59.37 75.99 59.38 75.97 74.72 71.71 74.72"/><path class="i" d="M86.32,74.74v-11.2c.01-.1-.12-.23-.22-.23h-3.63v11.43h-4.27l.02-15.35h8.17c2.08,.01,4.2,2.09,4.2,4.22l-.02,11.14h-4.25Z"/><polygon class="i" points="101.25 74.76 101.27 63.33 99.53 63.33 99.53 59.41 105.53 59.42 105.5 74.77 101.25 74.76"/><path class="i" d="M119.25,74.78h-10.93l.02-15.36h3.89v11.44h7.11c.1,.01,.24-.12,.24-.23l.02-11.2h3.89l-.02,11.15c0,2.08-2.08,4.2-4.21,4.2m-2.31-6.3l-1.68,1.28-1.65-1.55,.42-1.37v-7.41h3.8v7.31c0,.81-.27,1.28-.88,1.73"/><polygon class="i" points="127.88 66.86 127.88 63.37 125.88 63.36 125.89 59.45 132.15 59.45 132.13 66.87 127.88 66.86"/><path class="i" d="M139.29,74.81l-.54-2.79-1.82,2.18c-.39,.47-.84,.6-1.44,.6h-2v-3.92h1.69s2.71-3.13,2.71-3.23v-4.28h-2.73v-3.92h7v9.81l1.11,5.55h-3.98Z"/><polygon class="i" points="152.25 74.83 152.27 63.4 145.07 63.39 145.07 59.48 156.53 59.49 156.51 74.84 152.25 74.83"/><path class="i" d="M168.31,74.86l.02-11.43h-3.42v8.06c-.02,1.65-1.67,3.36-3.38,3.36h-3.18v-3.92h2.06c.11,0,.24-.12,.23-.23v-7.28h-1.88v-3.92l13.82,.02-.02,15.35h-4.26Z"/><path class="c" d="M462.1,79.03h0c-1.02,0-1.85-.83-1.85-1.85l.1-53.31c0-1.02,.83-1.85,1.85-1.85h0c1.02,0,1.85,.83,1.85,1.86l-.1,53.31c0,1.02-.83,1.85-1.85,1.85h0Z"/><polygon class="g" points="492.01 9.09 497.66 8.98 498.15 33.66 494.6 33.8 492.01 9.09"/><path class="f" d="M476.24,4.5l.94-3.83c2.63,.65,5.19,1.11,7.65,1.41,14.99,1.87,26.49-1.88,27.04-2.07,.02,0,.02,0,.02,0l1.28,3.73c-.17,.06-12.44,4.29-28.82,2.27-2.61-.32-5.32-.81-8.11-1.49"/><path class="h" d="M506.84,54.19l.44,5.03c6.09-2.16,11.48-.79,11.48-.79l.78-3.58s-6.85-3.07-12.7-.65"/><path class="h" d="M485.42,58.84c-5.65-.27-9.52-4.98-9.52-4.98l2.17-2.84c2.97,2.68,6.84,2.81,7.94,2.95l-.59,4.87Z"/><path class="b" d="M493.81,86.07c-.6-.53-1.08-1.16-1.51-1.88-.85-1.45-1.53-3.27-2.1-5.44-1.14-4.34-1.81-10.06-1.83-16.38-.01-3.58,.19-6.99,.57-10.05,.32-2.61,.78-4.97,1.34-7.01,.56-2.04,1.22-3.74,2.08-5.09,.57-.9,1.23-1.67,2.17-2.2,.53-.3,1.18-.49,1.83-.49,.17,0,.32,0,.47,.02,.89,.11,1.66,.54,2.25,1.07,.6,.53,1.08,1.16,1.51,1.88,.85,1.44,1.53,3.26,2.1,5.43,1.14,4.33,1.81,10.06,1.83,16.38,0,3.59-.2,6.98-.58,10.05-.32,2.61-.77,4.97-1.33,7.01-.57,2.04-1.23,3.74-2.08,5.09-.57,.9-1.23,1.67-2.17,2.2-.53,.3-1.18,.49-1.85,.5-.15,0-.3,0-.46-.02-.89-.11-1.66-.55-2.25-1.07m-.76-23.67c-.09,6.34,.65,11.98,1.76,15.19,.36,1.07,.76,1.85,1.08,2.25,.13,.16,.24,.26,.3,.31,.05-.04,.14-.11,.24-.23,.28-.32,.66-.95,1.01-1.83,.72-1.76,1.38-4.45,1.81-7.65,.33-2.47,.54-5.24,.58-8.16,.1-6.34-.65-11.98-1.76-15.19-.36-1.06-.77-1.85-1.09-2.25-.12-.17-.24-.26-.3-.31-.05,.04-.13,.11-.24,.23-.27,.31-.65,.95-1.01,1.83-.71,1.75-1.37,4.45-1.8,7.64-.33,2.47-.54,5.24-.58,8.17"/><path class="c" d="M513.93,50.03c-1.16-.59-4.3,.18-4.3,.18-.56-6.11-4.36-8.68-4.36-8.68,0,0,6.21-2.97,8.66,8.49"/><path class="c" d="M510.89,61.79h0c.02,9.55-3.14,9.97-3.14,9.97l-.36,3.54c7.31-.34,7.3-14.16,7.3-14.16,0,0-2.18-.36-3.79,.65"/><path class="e" d="M513.52,25.15l-12.71,.22,.05,4.12,3.88-.12v-.56c-.33,.56-.59,.86-.83,1.42-.56,1.4-.84,2.78-.97,3.87-.17,1.36-.12,2.3-.12,2.35l4.17-.07h0c0-.05-.03-.83,.11-1.93,.11-.94,.36-2.11,.81-3.24,0,0,1.63-4.58,5.62-6.07"/><path class="g" d="M626.28,64.31l-1.22,4.04c-52.95-13.69-92.28-11.61-92.28-11.61l.98-7.95s41.71,1.07,92.52,15.52"/><path class="j" d="M537.63,54.88l-1.13,6.75s17.83-1.91,43.77,1.9l1.11-5.31s-25.43-4.46-43.75-3.34"/><path class="h" d="M564.74,64.9l-.51,3.59s12.76,.92,26.67,3.8l.84-3.41s-13.76-3.74-27.01-3.98"/><path class="b" d="M552.07,66.43l-.99,6.7s9.65-.1,20.22,.96l.96-6.59s-7.74-1.35-20.19-1.07"/><path class="f" d="M601.41,65.6l-.92,4.76s5.69,.21,12.08,3.27l.89-4.52s-3.57-2.9-12.06-3.52"/><path class="g" d="M535.23,60.03l-.55,5.06s5.39-.71,11.09-.05l.58-4.83s-6.43-.89-11.12-.19"/><path class="k" d="M531.92,67.6l-.76,7.36s5.42-.99,11.15-.06l.72-7.55s-5.36-.98-11.11,.25"/><path class="e" d="M577.06,75.37l-.76,3.94s3.32-.38,7.41,.48l.76-3.78s-3.37-1.26-7.42-.65"/><path class="c" d="M538.72,72.8l-.57,4.18s3.52-.42,7.43,.18l.59-4.02s-3.55-.69-7.45-.33"/><path class="b" d="M611.03,79.16l-.1,3.29s2.67,.36,5.76,1.75l.09-3.17s-2.5-1.6-5.75-1.86"/><path class="c" d="M596.84,75.3l-1.14,3.1s2.62,.16,5.65,1.38l1.13-2.97s-2.48-1.5-5.64-1.5"/><polygon class="i" points="195.71 89.73 195.77 32.45 188.77 32.45 188.78 22.39 205.66 22.41 205.59 89.74 195.71 89.73"/><path class="i" d="M237.96,74.87l-25.94-.02v-10.06l25.6,.03c1.08,0,2.6-1.62,2.61-2.61l.03-27.11c0-.99-1.53-2.6-2.61-2.61h-15.53v12.2h8.16v9.52l-18.24-.02,.03-31.78,25.95,.03c5.74,0,12.29,6.66,12.28,12.31l-.03,27.83c0,5.66-6.57,12.29-12.31,12.29"/><polygon class="i" points="261.49 74.89 261.54 32.52 254.71 32.51 254.72 22.46 271.6 22.47 271.55 74.9 261.49 74.89"/><path class="i" d="M310.29,74.94l-20.17-33.32-.03,33.3h-10.15l.03-31.52c0-2.25,.72-3.86,2.52-5.29l3.59-2.78-7.8-12.84h11.58l20.35,33.79,.03-33.75h10.14l-.03,29.28c0,3.68-1.26,5.2-3.96,7l-3.05,2.06,8.43,14.1h-11.49Z"/><rect class="i" x="327.32" y="22.54" width="25.28" height="9.52"/><polygon class="i" points="384.42 75.01 374.1 75 386.26 32.64 359.6 32.62 359.62 8.11 369.68 8.12 369.66 22.57 397.13 22.6 397.12 30.77 384.42 75.01"/><path class="i" d="M437.46,75.07l.04-42.38-17.06-.02-.03,32.59c0,4.58-5.4,9.78-9.98,9.77h-8.17v-10.06h5.93c.81,0,2.16-1.25,2.16-2.06l.03-30.25h-6.46v-10.06l43.64,.05-.05,52.43h-10.05Z"/></svg>