<?xml version="1.0" encoding="UTF-8"?>
<svg width="24px" height="22px" viewBox="0 0 24 22" version="1.1" xmlns="http://www.w3.org/2000/svg" xmlns:xlink="http://www.w3.org/1999/xlink">
    <title>Building permit icon</title>
    <g id="Page-1" stroke="none" stroke-width="1" fill="none" fill-rule="evenodd">
        <g id="map-icons_fill" transform="translate(-163.000000, -508.000000)" fill="#2B393F">
            <g id="בקשות-והיתרי-בנייה-אייקון" transform="translate(152.000000, 496.000000)">
                <g id="Building-permit-icon" transform="translate(11.500000, 12.500000)">
                    <g id="Group-11" transform="translate(0.262207, 0.000000)">
                        <path d="M11.1294146,-9.9475983e-14 L21.7338867,8.10470062 L18.9584408,8.10470062 L18.9584408,9.5 C15.9054178,7.78564453 13.1984385,7.78564453 10.8375031,9.5 C7.29610005,12.0715332 8.03198242,16.3828125 9.25818452,18.2289041 L3.24107467,18.2289041 L3.24107467,18.2289041 L3.52927284,8.10470062 L0.276416016,8.10470062 L3.52927284,5.63660681 L3.52927284,0.350268038 L6.19773546,0.350268038 L6.19773546,3.66441077 L11.1294146,-9.9475983e-14 Z M10.8375031,4.71090501 C9.96798032,4.71090501 9.2630928,5.40576698 9.2630928,6.26292267 C9.2630928,7.12007835 9.96798032,7.81494033 10.8375031,7.81494033 C11.707026,7.81494033 12.4119135,7.12007835 12.4119135,6.26292267 C12.4119135,5.85130199 12.2460386,5.45654023 11.9507794,5.16548046 C11.6555202,4.87442069 11.2550627,4.71090501 10.8375031,4.71090501 Z" id="Combined-Shape"></path>
                    </g>
                    <g id="Group-6" transform="translate(9.200000, 8.500000)" fill-rule="nonzero">
                        <path d="M5.81988002,0.729262408 C8.85559766,0.729262408 11.3193685,3.22875138 11.3193685,6.30847886 C11.3193685,9.38820634 8.85559766,11.8876953 5.81988002,11.8876953 C2.78416239,11.8876953 0.320391555,9.38820634 0.320391555,6.30847886 C0.320391555,3.22875138 2.78416239,0.729262408 5.81988002,0.729262408 Z M8.2288754,3.33044345 L4.64141821,6.48372615 L3.75757185,5.20939456 L2.20598652,6.48372615 L4.24939434,9.28651427 L9.36643453,4.58958057 L8.2288754,3.33044345 Z" id="Combined-Shape"></path>
                    </g>
                </g>
            </g>
        </g>
    </g>
</svg>