<?xml version="1.0" encoding="UTF-8"?>
<svg width="22px" height="20px" viewBox="0 0 22 20" version="1.1" xmlns="http://www.w3.org/2000/svg" xmlns:xlink="http://www.w3.org/1999/xlink">
    <title>Children_icon</title>
    <g id="Page-1" stroke="none" stroke-width="1" fill="none" fill-rule="evenodd">
        <g id="map-icons_fill" transform="translate(-60.000000, -1287.000000)" fill="#2B393F" fill-rule="nonzero">
            <g id="Children-icon" transform="translate(48.000000, 1274.000000)">
                <g id="Group-9" transform="translate(12.500000, 13.500000)">
                    <path d="M14,2 C14,0.89 14.89,0 16,0 C17.11,0 18,0.89 18,2 C18,3.11 17.11,4 16,4 C14.89,4 14,3.11 14,2 Z" id="Path"></path>
                    <path d="M18,19 L18,13 L20.5,13 L17.96,5.37 C17.68,4.55 16.92,4 16.06,4 L15.94,4 C15.08,4 14.31,4.55 14.04,5.37 L13,8.5 C14.08,9.1 14.5446777,9.48214452 14.5446777,10.8021445 L14.5446777,19 L16.0260325,19 L16.0260325,13.1555176 L16.5181926,13.1555176 L16.5181926,19 L18,19 Z" id="Path"></path>
                    <path d="M10.5,9.5 C11.33,9.5 12,8.83 12,8 C12,7.17 11.33,6.5 10.5,6.5 C9.67,6.5 9,7.17 9,8 C9,8.83 9.67,9.5 10.5,9.5 Z" id="Path"></path>
                    <path d="M3.5,4 C4.61,4 5.5,3.11 5.5,2 C5.5,0.89 4.61,0 3.5,0 C2.39,0 1.5,0.89 1.5,2 C1.5,3.11 2.39,4 3.5,4 Z" id="Path"></path>
                    <path d="M5.5,19 L5.5,12 L7,12 L7,6 C7,4.9 6.1,4 5,4 L2,4 C0.9,4 0,4.9 0,6 L0,12 L1.5,12 L1.5,19 L3.23632813,19 L3.23632813,12.5 L3.76269531,12.5 L3.76269531,19 L5.5,19 Z" id="Path"></path>
                    <path d="M12,19 L12,15 L13,15 L13,11 C13,10.18 12.32,9.5 11.5,9.5 L9.5,9.5 C8.68,9.5 8,10.18 8,11 L8,15 L9,15 L9,19 L10.1922607,19 L10.1922607,15.1640625 L10.8005371,15.1640625 L10.8005371,19 L12,19 Z" id="Path"></path>
                </g>
            </g>
        </g>
    </g>
</svg>