<?xml version="1.0" encoding="UTF-8"?>
<svg width="27px" height="26px" viewBox="0 0 27 26" version="1.1" xmlns="http://www.w3.org/2000/svg" xmlns:xlink="http://www.w3.org/1999/xlink">
    <title>community_icon</title>
    <g id="Page-1" stroke="none" stroke-width="1" fill="none" fill-rule="evenodd">
        <g id="map-icons_fill" transform="translate(-57.000000, -74.000000)">
            <g id="קהילה-ורווחה-אייקון" transform="translate(47.000000, 64.000000)">
                <g id="community_icon" transform="translate(10.250000, 10.000000)">
                    <g id="Group" transform="translate(0.502441, 0.515137)" fill="#2B393F">
                        <path d="M21.8389429,9.87257263 L21.8389429,9.51221895 C22.0659863,9.26837895 22.2449901,8.92833684 22.3509113,8.53029053 C22.8815643,8.37988281 22.8815643,7.57985721 22.4580992,7.44537354 L22.4580992,6.28914415 C22.4580992,5.45626836 21.4236973,4.88623047 20.4138899,4.88623047 C19.4301973,4.88623047 18.5616483,5.45636942 18.5616483,6.28914415 L18.5616483,7.44557564 C18.1779673,7.6878284 18.069909,8.37988281 18.6688362,8.53008842 C18.7747573,8.92833684 18.953956,9.26837895 19.1810969,9.51221895 L19.1810969,9.87257263 C19.0792684,10.2157474 17.9255414,10.7670905 16.8313479,11.2114189 C16.7380944,11.2494147 16.6764126,11.3447074 16.6764126,11.4511158 L16.6764126,12.3524042 C16.6764126,12.4939789 16.7841852,12.6089768 16.9171956,12.6089768 L23.9105842,12.6089768 C24.0434972,12.6089768 24.1513672,12.4939789 24.1513672,12.3524042 L24.1513672,11.4511158 C24.1512697,11.3446063 24.0894905,11.2491116 23.9962371,11.2114189 C22.9020435,10.7673937 21.9409663,10.2161516 21.8389429,9.87257263 Z" id="Shape"></path>
                        <path d="M5.45301759,9.87257263 L5.45301759,9.51221895 C5.68006104,9.26837895 5.85906483,8.92833684 5.96498596,8.53029053 C6.49563903,8.37988281 6.49563903,7.57985721 6.07217386,7.44537354 L6.07217386,6.28914415 C6.07217386,5.45626836 5.03777205,4.88623047 4.02796462,4.88623047 C3.04427206,4.88623047 2.17572299,5.45636942 2.17572299,6.28914415 L2.17572299,7.44557564 C1.79204205,7.6878284 1.68398374,8.37988281 2.28291089,8.53008842 C2.38883202,8.92833684 2.5680307,9.26837895 2.79517159,9.51221895 L2.79517159,9.87257263 C2.69334309,10.2157474 1.53961611,10.7670905 0.445422571,11.2114189 C0.352169101,11.2494147 0.290487339,11.3447074 0.290487339,11.4511158 L0.290487339,12.3524042 C0.290487339,12.4939789 0.398259897,12.6089768 0.531270332,12.6089768 L7.5246589,12.6089768 C7.65757189,12.6089768 7.76544189,12.4939789 7.76544189,12.3524042 L7.76544189,11.4511158 C7.76534445,11.3446063 7.70356525,11.2491116 7.61031178,11.2114189 C6.51611824,10.7673937 5.55504098,10.2161516 5.45301759,9.87257263 Z" id="Shape-Copy"></path>
                        <path d="M13.5380628,21.2829816 L13.5380628,20.9226279 C13.7651063,20.6787879 13.9441101,20.3387458 14.0500312,19.9406995 C14.5806843,19.7902918 14.5806843,18.9902662 14.1572191,18.8557825 L14.1572191,17.6995531 C14.1572191,16.8666773 13.1228173,16.2966394 12.1130099,16.2966394 C11.1293173,16.2966394 10.2607682,16.8667784 10.2607682,17.6995531 L10.2607682,18.8559846 C9.87708728,19.0982374 9.76902897,19.7902918 10.3679561,19.9404974 C10.4738773,20.3387458 10.6530759,20.6787879 10.8802168,20.9226279 L10.8802168,21.2829816 C10.7783883,21.6261563 9.62466134,22.1774995 8.5304678,22.6218279 C8.43721433,22.6598237 8.37553257,22.7551163 8.37553257,22.8615248 L8.37553257,23.7628132 C8.37553257,23.9043879 8.48330513,24.0193858 8.61631557,24.0193858 L15.6097041,24.0193858 C15.7426171,24.0193858 15.8504871,23.9043879 15.8504871,23.7628132 L15.8504871,22.8615248 C15.8503897,22.7550153 15.7886105,22.6595206 15.695357,22.6218279 C14.6011635,22.1778027 13.6400862,21.6265606 13.5380628,21.2829816 Z" id="Shape-Copy-2"></path>
                        <path d="M2.9644165,14.2611084 C3.63885498,18.3710327 5.68969727,19.9874878 7.09277344,20.9562988 C7.30657959,20.6551514 7.48185238,20.4954861 7.76544189,19.9874878 C5.18145752,18.142334 4.30383301,15.755188 4.12399292,14.1156006 C3.83416748,14.1502991 3.43023682,14.1842757 2.9644165,14.2611084 Z" id="Path-18"></path>
                        <path d="M16.8733521,14.0748291 C17.5477905,18.1847534 19.5986328,19.8012085 21.001709,20.7700195 C21.2155151,20.4688721 21.3907879,20.3092068 21.6743774,19.8012085 C19.0903931,17.9560547 18.2127686,15.5689087 18.0329285,13.9293213 C17.743103,13.9640198 17.3391724,13.9979964 16.8733521,14.0748291 Z" id="Path-18-Copy" transform="translate(19.273865, 17.349670) rotate(-118.000000) translate(-19.273865, -17.349670) "></path>
                        <path d="M9.28778234,1.50523141 C9.96222082,5.61515572 11.5410742,7.29857024 14.2655689,9.24388125 C14.4793751,8.94273379 14.6546478,8.78306849 14.9382374,8.27507022 C10.8649056,5.46662891 10.6978111,3.12258746 10.4473588,1.3597236 C10.1575333,1.39442208 9.75360265,1.42839874 9.28778234,1.50523141 Z" id="Path-18-Copy-2" transform="translate(12.113010, 5.301802) rotate(-237.000000) translate(-12.113010, -5.301802) "></path>
                    </g>
                    <rect id="Rectangle-path" x="0.75" y="1" width="24" height="24"></rect>
                </g>
            </g>
        </g>
    </g>
</svg>