<?xml version="1.0" encoding="UTF-8"?>
<svg width="28px" height="24px" viewBox="0 0 28 24" version="1.1" xmlns="http://www.w3.org/2000/svg" xmlns:xlink="http://www.w3.org/1999/xlink">
    <title>Cultural_institutions_icon</title>
    <g id="Page-1" stroke="none" stroke-width="1" fill="none" fill-rule="evenodd">
        <g id="map-icons_fill" transform="translate(-253.000000, -278.000000)">
            <g id="מוסדות-תרבות--אייקון" transform="translate(243.500000, 267.000000)">
                <g id="Cultural_institutions_icon" transform="translate(9.500000, 11.000000)">
                    <polygon id="Path" points="1.5 0 25.5 0 25.5 24 1.5 24"></polygon>
                    <path d="M14.1645421,3.85901521 C16.0232114,8.00619322 16.0232114,17.9692075 10.4538163,19.9200168 C6.04763259,20.5074639 1.05047487,16.717824 0.0120271382,6.76561079 C8.49220599,9.14229162 11.9452486,5.36190985 14.1645421,3.85901521 Z M12.032742,13.1604546 C11.4361645,14.4116075 10.6464301,15.9793972 9.00112576,16.231269 C7.90425618,16.3991835 6.63777669,15.7926297 5.20168728,14.4116075 L4.15540907,15.230835 C5.65146651,16.8991492 7.19524906,17.6719899 8.78675673,17.5493571 C11.1740182,17.3654079 12.361518,15.7633328 13.3344011,13.6509755 C12.9589844,13.4939779 12.6784002,13.3694859 12.032742,13.1604546 Z M7.31540256,10.3509552 C6.26170971,9.76410239 5.38282874,9.57059281 4.67875965,9.77042643 C3.97469056,9.97026005 3.37936906,10.5803517 2.89279514,11.6007012 L2.89279514,11.6007012 L4.0770128,12.3136936 C4.47817737,11.5634811 4.82053938,11.1429036 5.10409885,11.0519613 C5.38765832,10.9610189 5.92894973,11.1120922 6.72797309,11.5051812 L6.72797309,11.5051812 Z M13.3344011,10.0932285 C12.7254988,9.3264245 12.053333,9.00856383 11.3179036,9.13964646 C10.5824742,9.27072908 9.989149,9.77389827 9.53792792,10.649154 L9.53792792,10.649154 L10.2443441,11.302002 C10.5192988,10.8405597 10.877152,10.5304107 11.3179036,10.3715549 C11.7586552,10.2126991 12.2121541,10.4010039 12.6784002,10.9364692 L12.6784002,10.9364692 Z" id="Combined-Shape" fill="#2B393F"></path>
                    <path d="M16.2630397,7.72514443 L16.6818098,8.00136972 C16.8211826,8.09301427 16.9604412,8.18412496 17.0998947,8.27439187 L17.5191493,8.54235134 C20.0418965,10.131201 22.7279807,11.3462495 27.3804482,10.3800085 C24.5999388,20.2610227 19.4755927,21.9655009 17.379079,22.2003695 C15.2825652,22.4352381 13.9630687,21.2748924 12.8269703,20.0783961 C13.2847478,19.5605365 13.6883769,19.068941 14.0421392,18.592379 L14.0320385,18.5817726 C14.1269899,18.6934015 14.2654984,18.8500857 14.447564,19.0518252 C15.0388817,18.5536068 15.562812,18.3838474 16.0193549,18.5425471 C16.4758979,18.7012467 16.7787679,19.3090171 16.927965,20.3658583 L18.1876628,20.262235 C18.11537,18.8783188 17.5786901,17.9331552 16.5776232,17.4267442 C16.0439721,17.1567856 15.0912137,17.0347629 14.9719292,17.224359 C14.9226173,17.3027377 14.8398311,17.4229652 14.7344558,17.573566 L14.8398255,17.4010636 C15.4074275,16.4428873 15.7736965,15.5085509 15.9775554,14.4959601 L17.330051,14.0449219 L16.8338352,12.7958713 L16.1022271,13.1604546 L16.0939703,13.2341444 L16.2630397,7.72514443 Z M20.0794135,13.9324652 C19.5009811,14.0506159 19.0527796,14.1462205 18.734809,14.219279 C18.9890544,15.2226969 19.3511274,16.122708 20.4511854,16.5864936 C21.1755498,16.8918864 22.590954,16.9634357 23.5716417,15.8559706 C23.5797718,15.8467895 23.4408236,15.6685984 23.154797,15.3213973 L22.73919,14.8425836 C22.0963826,15.3490299 21.5198717,15.5149608 21.0096571,15.3403763 C20.4994426,15.1657919 20.1893614,14.6964882 20.0794135,13.9324652 Z" id="Combined-Shape" fill="#2B393F"></path>
                </g>
            </g>
        </g>
    </g>
</svg>