<?xml version="1.0" encoding="UTF-8"?>
<svg width="16px" height="20px" viewBox="0 0 16 20" version="1.1" xmlns="http://www.w3.org/2000/svg" xmlns:xlink="http://www.w3.org/1999/xlink">
    <title>emergency icon</title>
    <g id="Page-1" stroke="none" stroke-width="1" fill="none" fill-rule="evenodd">
        <g id="map-icons_fill" transform="translate(-62.000000, -619.000000)" fill="#2B393F">
            <g id="חירום-אייקון" transform="translate(47.000000, 606.000000)">
                <g id="emergency-icon" transform="translate(15.000000, 13.500000)">
                    <path d="M7.95625,4.14152893 C10.8955973,4.14152893 13.2784091,6.52434071 13.2784091,9.46368802 L13.2784091,14.1972878 L2.63409091,14.1972878 L2.63409091,9.46368802 C2.63409091,6.52434071 5.0169027,4.14152893 7.95625,4.14152893 Z M7.77272727,6.29720792 C6.85268888,6.3359338 6.1283954,6.60663033 5.59984686,7.10929752 C5.1700202,7.51807692 4.89676728,8.05110261 4.78008811,8.7083746 L4.78008811,8.7083746 L5.59984686,8.7083746 C5.67292,8.21673185 5.89844027,7.81487073 6.27640769,7.50279126 C6.65437511,7.19071179 7.1531483,7.01423038 7.77272727,6.97334706 L7.77272727,6.97334706 Z" id="Combined-Shape"></path>
                    <polygon id="Path-25" points="0.0649414062 3.0286157 3.00113636 5.89174583 3.72084739 5.25444215 0.798863636 2.43445934"></polygon>
                    <polygon id="Path-26" points="7.77272727 0.489590732 7.77272727 3.52011941 8.5760609 3.52011941 8.5760609 0.489590732"></polygon>
                    <polygon id="Path-27" points="11.7360507 5.06895661 14.1960227 2.43445934 14.8260387 3.21410124 12.3607955 5.60435902"></polygon>
                    <polygon id="Path-28" points="0.496759588 18.2384298 1.52738814 17.2495339 13.9834872 17.2495339 15.1136364 18.2384298"></polygon>
                    <path d="M13.9834872,17.2495339 C14.0757687,15.8943389 13.5397209,15.0878425 12.375344,14.8300448 C9.56852583,14.8300448 5.77293257,14.8300448 3.10748846,14.8300448 C1.842115,15.293912 1.31541489,16.1004084 1.52738814,17.2495339 L0.496759588,18.2384298 C-0.0217877012,16.1735077 0.690656072,14.6896234 2.63409091,13.7867769 C5.49045854,13.7867769 10.5154474,13.7867769 13.2784091,13.7867769 C14.7897727,14.635365 15.4015152,16.1192493 15.1136364,18.2384298 L13.9834872,17.2495339 Z" id="Path-29"></path>
                </g>
            </g>
        </g>
    </g>
</svg>