<?xml version="1.0" encoding="UTF-8"?>
<svg width="23px" height="24px" viewBox="0 0 23 24" version="1.1" xmlns="http://www.w3.org/2000/svg" xmlns:xlink="http://www.w3.org/1999/xlink">
    <title>garden icon</title>
    <g id="Page-1" stroke="none" stroke-width="1" fill="none" fill-rule="evenodd">
        <g id="map-icons_fill" transform="translate(-58.000000, -381.000000)" fill="#2B393F">
            <g id="גינות-אייקון" transform="translate(47.000000, 371.000000)">
                <g id="garden-icon" transform="translate(11.000000, 10.000000)">
                    <path d="M15.5940374,11.3059859 L18.0161851,0.322753906 L22.6894531,19.6074783 L14.0574476,19.5355413 C15.2819598,18.5557191 16.0165818,17.7744622 16.2613139,17.1917707 C16.628412,16.3177333 17.0216744,14.819096 16.7644043,13.5 C16.5928909,12.6206027 16.2027686,11.8892647 15.5940374,11.3059859 Z" id="Shape"></path>
                    <path d="M7.06819045,6.45849609 C9.63418418,6.45849609 11.7561989,8.27999209 12.1541167,10.6630761 C14.169295,11.1623594 15.6630859,12.9325456 15.6630859,15.0463944 C15.6630859,18.5377111 11.5370287,20.5070452 8.48750846,18.8648886 L8.48724365,17.8850435 C8.45627848,17.0568146 8.46472168,16.4921875 8.51257324,16.1911621 C8.63253784,15.750885 9.00532531,15.3131827 9.38848877,15.0500793 C10.0498962,14.5959167 10.6921997,14.6690063 11.2635498,14.7613525 C11.3333333,14.5738525 11.4513774,14.2904867 11.617682,13.9112549 C10.8409152,13.7698161 10.1978038,13.7867025 9.68834783,13.9619141 C9.17889182,14.1371257 8.77852376,14.4036051 8.48724365,14.7613525 L8.48724365,14.7613525 L8.4407959,11.9395652 L7.31164551,11.9395652 L7.31164551,14.5959167 C6.8950051,14.2396879 6.48391298,14.0794197 6.07836914,14.1151123 C5.6728253,14.1508049 5.25956643,14.3662183 4.83859253,14.7613525 L4.83859253,14.7613525 L5.3374939,15.2564392 C5.71951294,14.9709981 6.05386353,14.8282776 6.34054565,14.8282776 C6.62722778,14.8282776 6.95092773,15.0447168 7.31164551,15.4775951 L7.31164551,15.4775951 L7.26809142,18.8332675 C3.39059002,20.2500188 -1.51549376,14.9186997 2.12684524,12.9094281 C1.13237073,9.68198863 3.62671368,6.45849609 7.06819045,6.45849609 Z" id="Combined-Shape"></path>
                    <polygon id="Path-23-Copy" points="16.7644043 19.6074783 16.7644043 23.095459 17.8465576 23.095459 17.8465576 19.6074783"></polygon>
                    <polygon id="Path-23-Copy-2" points="7.2557373 19.015625 7.2557373 23.095459 8.51257324 23.095459 8.51257324 19.015625"></polygon>
                </g>
            </g>
        </g>
    </g>
</svg>