<?xml version="1.0" encoding="UTF-8"?>
<svg width="22px" height="19px" viewBox="0 0 22 19" version="1.1" xmlns="http://www.w3.org/2000/svg" xmlns:xlink="http://www.w3.org/1999/xlink">
    <title>Infrastructure works icon</title>
    <g id="Page-1" stroke="none" stroke-width="1" fill="none" fill-rule="evenodd">
        <g id="map-icons_fill" transform="translate(-59.000000, -510.000000)" fill="#2B393F">
            <g id="עבודות-תשתית-אייקון" transform="translate(47.000000, 496.000000)">
                <g id="Infrastructure-works-icon" transform="translate(12.750000, 14.500000)">
                    <path d="M5.45092773,4.75096211 C5.45092773,4.75096211 5.79753571,2.15534055 6.8739177,2.11417235 C7.9502997,2.07300415 9.33111572,3.23071289 9.75444269,2.69097714 C10.1777697,2.15124139 11.0637082,1.57853576 12.7805199,1.37246978 C14.4973315,1.16640379 13.7705096,-0.23443998 14.8466568,0.219085159 C15.9228041,0.672610299 18.160317,5.80896248 18.2476483,6.55066505 C17.7852268,6.55066505 17.4120687,6.55066505 17.1281738,6.55066505 C16.5338745,4.65063477 15.6635132,2.82858885 15.0740967,2.11417235 C14.4846802,1.39975585 14.5423584,2.33532379 13.067688,2.53728913 C11.5930176,2.73925446 10.8433838,2.80022485 10.2449951,3.63225983 C9.64660645,4.4642948 8.2581294,3.3399606 7.17382812,3.3399606 C6.54040527,3.3399606 6.5760498,4.22503662 6.46887207,4.894104 C6.36169434,5.56317139 6.36169434,6.21307373 6.46887207,6.55066505 C6.23429362,6.55066505 5.86668422,6.55066505 5.36604387,6.55066505 C5.42263311,5.35086309 5.45092773,4.75096211 5.45092773,4.75096211 Z" id="Shape"></path>
                    <ellipse id="Oval" cx="17.7555263" cy="14.2047426" rx="2.34227826" ry="2.2445136"></ellipse>
                    <path d="M3.92789423,10.2929223 C3.92789423,10.2929223 15.2403521,18.2487341 19.8085783,6.55066505 L2.70196909,6.55066505" id="Shape-3"></path>
                    <polygon id="Path-23" points="0.00714053993 4.15637207 2.70196909 4.15637207 6.36157227 15.9344482 6.79602051 15.9344482 8.49523926 12.4696045 9.59765625 12.9352724 7.56518555 17.0878906 5.57421875 17.0878906 1.73535156 5.44274902 0.00714053993 5.44274902"></polygon>
                </g>
            </g>
        </g>
    </g>
</svg>