<?xml version="1.0" encoding="UTF-8"?>
<svg width="19px" height="22px" viewBox="0 0 19 22" version="1.1" xmlns="http://www.w3.org/2000/svg" xmlns:xlink="http://www.w3.org/1999/xlink">
    <title>library icon</title>
    <g id="Page-1" stroke="none" stroke-width="1" fill="none" fill-rule="evenodd">
        <g id="map-icons_fill" transform="translate(-257.000000, -76.000000)" fill="#2B393F">
            <g id="סיפריות-אייקון" transform="translate(243.500000, 64.000000)">
                <g id="library-icon" transform="translate(13.500000, 12.500000)">
                    <g id="Group" transform="translate(0.000000, 0.500000)">
                        <path d="M0.624992448,5.91540717 C0.624992448,5.91540717 2.67827328,4.97306764 9.05209351,7.97886539 L9.08813477,20 C9.08813477,20 5.96375281,17.4713732 1.63707865,17.5429688 L0.624992448,5.91540717 Z" id="Shape"></path>
                        <path d="M18.6408691,5.84277344 C18.6408691,5.84277344 16.2007568,4.97675097 9.82693656,7.98254872 L10,20 C10,20 13.4685393,17.3950562 17.7954157,17.4666517 L18.6408691,5.84277344 Z" id="Shape-2"></path>
                        <path d="M17.2474302,0.702270508 C17.3549679,1.09824135 17.3549679,1.3057251 17.4653868,1.63867187 C13.9860394,2.70772018 11.6107904,3.7109235 10.2600969,5.39623338 C12.5469902,3.70142213 15.0384244,3.05209346 18.1890869,2.75531006 L18.1890869,2.75531006 L18.1890869,3.75891113 C15.0252687,3.96813965 11.492981,4.96038818 9.31945801,7.47015381 L9.31945801,7.47015381 C7.14593506,4.96038818 4.80089686,3.96813965 1.63707865,3.75891113 L1.63707865,2.75531006 C4.9278764,3.0652938 6.62747326,3.75988127 8.73790737,5.62864469 C7.68361536,3.83419345 5.92847874,2.73486698 2.36077881,1.63867187 C2.47119772,1.3057251 2.47119772,1.09824135 2.57873535,0.702270508 C6.0649149,1.47724823 8.23273364,2.96988417 9.42542878,4.92439683 C10.9244591,2.98245385 13.7997234,1.46869575 17.2474302,0.702270508 Z" id="Combined-Shape"></path>
                    </g>
                </g>
            </g>
        </g>
    </g>
</svg>