<?xml version="1.0" encoding="UTF-8"?>
<svg width="20px" height="22px" viewBox="0 0 20 22" version="1.1" xmlns="http://www.w3.org/2000/svg" xmlns:xlink="http://www.w3.org/1999/xlink">
    <title>nights icon</title>
    <g id="Page-1" stroke="none" stroke-width="1" fill="none" fill-rule="evenodd">
        <g id="map-icons_fill" transform="translate(-61.000000, -1073.000000)" fill="#2B393F" fill-rule="nonzero">
            <g id="לילה-אייקון" transform="translate(48.000000, 1061.000000)">
                <g id="nights-icon" transform="translate(13.000000, 12.500000)">
                    <path d="M7.40991211,19.1251221 C8.38991211,19.4451221 9.91,20.01 10.99,20.01 C14.49,20.01 17.57,18.21 19.36,15.49 C17,15.72 12.38,14.52 10.1,10.08 C7.77,5.57 9.6,1.6 10.63,0.01 C5.27,0.2 0.978027344,5.59 0.978027344,11 C1.92431641,10.8294678 2.77600098,10.42 4.68017578,11.2220459 C5.63639952,11.6248111 5.91213025,12.1618368 6.44018555,13.0322266 C7.38806152,13.307251 8.18249512,13.7126465 8.79943848,14.4624023 C9.41638184,15.2121582 9.31359863,15.9384766 9,16.9698486 C8.79093424,17.65743 8.26090495,18.3758545 7.40991211,19.1251221 Z" id="Path"></path>
                    <path d="M6,14 L5.82,14 C5.4,12.84 4.3,12 3,12 C1.34,12 0,13.34 0,15 C0,16.66 1.34,18 3,18 C3.62,18 5.49,18 6,18 C7.1,18 8,17.1 8,16 C8,14.9 7.1,14 6,14 Z" id="Path"></path>
                </g>
            </g>
        </g>
    </g>
</svg>