<?xml version="1.0" encoding="UTF-8"?>
<svg width="18px" height="16px" viewBox="0 0 18 16" version="1.1" xmlns="http://www.w3.org/2000/svg" xmlns:xlink="http://www.w3.org/1999/xlink">
    <title>Pool Icon</title>
    <g id="Page-1" stroke="none" stroke-width="1" fill="none" fill-rule="evenodd">
        <g id="map-icons_fill" transform="translate(-158.000000, -283.000000)" fill="#2B393F" fill-rule="nonzero">
            <g id="בריכות-אייקון--copy" transform="translate(144.000000, 268.000000)">
                <g id="Pool-Icon" transform="translate(14.666667, 15.499868)">
                    <path d="M6.66666667,4.16679903 L3.95833333,6.87513236 C4.21666667,6.97513236 4.425,7.10013236 4.6,7.20013236 C4.90833333,7.39179903 5.09166667,7.50013236 5.55833333,7.50013236 C6.025,7.50013236 6.20833333,7.39179903 6.51666667,7.20013236 C6.9,6.97513236 7.41666667,6.66679903 8.34166667,6.66679903 C9.26666667,6.66679903 9.78333333,6.97513236 10.1583333,7.20013236 C10.4666667,7.3834657 10.6583333,7.50013236 11.1166667,7.50013236 C11.575,7.50013236 11.7666667,7.39179903 12.075,7.20013236 C12.175,7.14179903 12.2916667,7.07513236 12.4166667,7.0084657 L7.06666667,1.66679903 C5.775,0.375132363 4.58333333,-0.00820097021 2.5,0.000132363128 L2.5,2.0834657 C4.01666667,2.07513236 4.90833333,2.4084657 5.83333333,3.3334657" id="Path-Copy-4"></path>
                    <path d="M2.79166667,10.416799 C3.25,10.416799 3.44166667,10.5334657 3.75,10.716799 C4.125,10.941799 4.64166667,11.2501324 5.56666667,11.2501324 C6.49166667,11.2501324 7.00833333,10.941799 7.38333333,10.716799 C7.69166667,10.5251324 7.875,10.416799 8.34166667,10.416799 C8.8,10.416799 8.99166667,10.5334657 9.3,10.716799 C9.675,10.941799 10.1916667,11.2501324 11.1166667,11.2501324 C12.0416667,11.2501324 12.5583333,10.941799 12.9333333,10.716799 C13.2416667,10.5251324 13.425,10.416799 13.8916667,10.416799 C14.35,10.416799 14.5416667,10.5334657 14.85,10.716799 C15.225,10.941799 15.7333333,11.241799 16.65,11.2501324 L16.65,9.5834657 C16.1916667,9.5834657 16,9.46679903 15.6916667,9.2834657 C15.3166667,9.0584657 14.8,8.75013236 13.875,8.75013236 C12.95,8.75013236 12.4333333,9.0584657 12.0583333,9.2834657 C11.75,9.47513236 11.5583333,9.5834657 11.1,9.5834657 C10.6416667,9.5834657 10.45,9.46679903 10.1416667,9.2834657 C9.76666667,9.0584657 9.25,8.75013236 8.325,8.75013236 C7.4,8.75013236 6.88333333,9.0584657 6.50833333,9.2834657 C6.2,9.47513236 6.01666667,9.5834657 5.55,9.5834657 C5.09166667,9.5834657 4.9,9.46679903 4.59166667,9.2834657 C4.21666667,9.0584657 3.7,8.75013236 2.775,8.75013236 C1.85,8.75013236 1.33333333,9.0584657 0.958333333,9.2834657 C0.65,9.47513236 0.466666667,9.5834657 -1.0658141e-14,9.5834657 L-1.0658141e-14,11.2501324 C0.925,11.2501324 1.44166667,10.941799 1.83333333,10.716799" id="Path-Copy-3"></path>
                    <path d="M13.8916667,12.5001324 C12.9666667,12.5001324 12.45,12.8084657 12.075,13.0334657 C11.7666667,13.2251324 11.575,13.3334657 11.1166667,13.3334657 C10.6583333,13.3334657 10.4666667,13.216799 10.1583333,13.0334657 C9.78333333,12.8084657 9.26666667,12.5001324 8.34166667,12.5001324 C7.41666667,12.5001324 6.9,12.8084657 6.51666667,13.0334657 C6.20833333,13.2251324 6.025,13.3334657 5.55833333,13.3334657 C5.09166667,13.3334657 4.90833333,13.2251324 4.6,13.0334657 C4.225,12.8084657 3.70833333,12.5001324 2.78333333,12.5001324 C1.85833333,12.5001324 1.34166667,12.8084657 0.958333333,13.0334657 C0.65,13.2251324 0.466666667,13.3334657 -2.13162821e-14,13.3334657 L-2.13162821e-14,15.0001324 C0.925,15.0001324 1.44166667,14.691799 1.825,14.466799 C2.13333333,14.2751324 2.325,14.166799 2.78333333,14.166799 C3.24166667,14.166799 3.43333333,14.2751324 3.74166667,14.466799 C4.11666667,14.691799 4.63333333,15.0001324 5.55833333,15.0001324 C6.48333333,15.0001324 7,14.691799 7.38333333,14.466799 C7.69166667,14.2751324 7.875,14.166799 8.34166667,14.166799 C8.8,14.166799 8.99166667,14.2834657 9.3,14.466799 C9.675,14.691799 10.1916667,15.0001324 11.1166667,15.0001324 C12.0416667,15.0001324 12.55,14.691799 12.9333333,14.466799 C13.2416667,14.2751324 13.425,14.166799 13.8916667,14.166799 C14.35,14.166799 14.5416667,14.2834657 14.85,14.466799 C15.225,14.691799 15.7416667,15.0001324 16.6666667,15.0001324 L16.6666667,13.3334657 C16.2,13.3334657 16.0166667,13.2251324 15.7083333,13.0334657" id="Path-Copy-2"></path>
                    <path d="M12.0833333,4.16679903 C13.2339266,4.16679903 14.1666667,3.23405893 14.1666667,2.0834657 C14.1666667,0.932872468 13.2339266,0.000132363128 12.0833333,0.000132363128 C10.9327401,0.000132363128 10,0.932872468 10,2.0834657" id="Oval-Copy-3"></path>
                </g>
            </g>
        </g>
    </g>
</svg>