<?xml version="1.0" encoding="UTF-8"?>
<svg width="19px" height="31px" viewBox="0 0 19 31" version="1.1" xmlns="http://www.w3.org/2000/svg" xmlns:xlink="http://www.w3.org/1999/xlink">
    <title>Public Buildings icon</title>
    <g id="Page-1" stroke="none" stroke-width="1" fill="none" fill-rule="evenodd">
        <g id="map-icons_fill" transform="translate(-157.000000, -964.000000)" fill="#2B393F">
            <g id="מבני-ציבור-אייקון" transform="translate(144.000000, 957.000000)">
                <g id="Public-Buildings-icon" transform="translate(13.000000, 7.000000)">
                    <polygon id="Rectangle-Copy-6" points="0.688720703 28.0227157 18.3518722 28.0227157 18.3518722 30.4907188 0.688720703 30.4907188"></polygon>
                    <rect id="Rectangle" x="11.8933865" y="0" width="2.72924282" height="2.79217126"></rect>
                    <rect id="Rectangle-Copy-9" x="14.6226293" y="1.00053939" width="2.72924282" height="2.79217126"></rect>
                    <rect id="Rectangle" x="9.80268547" y="0" width="1.39380071" height="6.98042814"></rect>
                    <path d="M14.8623047,5.98042814 L14.8623047,7.98042814 L16.771689,7.98042814 L16.771689,27.1295413 L2.26245212,27.1295413 L2.26245212,7.98042814 L4.64648437,7.98042814 L4.64648437,5.98042814 L14.8623047,5.98042814 Z M6.76276393,23.0577506 L4.47980276,23.0577506 L4.47980276,25.3444543 L6.76276393,25.3444543 L6.76276393,23.0577506 Z M10.9441661,23.0577506 L8.66120488,23.0577506 L8.66120488,25.3444543 L10.9441661,25.3444543 L10.9441661,23.0577506 Z M15.1255682,23.0577506 L12.842607,23.0577506 L12.842607,25.3444543 L15.1255682,25.3444543 L15.1255682,23.0577506 Z M6.76276393,18.8694937 L4.47980276,18.8694937 L4.47980276,21.1561974 L6.76276393,21.1561974 L6.76276393,18.8694937 Z M10.9441661,18.8694937 L8.66120488,18.8694937 L8.66120488,21.1561974 L10.9441661,21.1561974 L10.9441661,18.8694937 Z M15.1255682,18.8694937 L12.842607,18.8694937 L12.842607,21.1561974 L15.1255682,21.1561974 L15.1255682,18.8694937 Z M10.9441661,14.7406447 L8.66120488,14.7406447 L8.66120488,17.0273485 L10.9441661,17.0273485 L10.9441661,14.7406447 Z M15.1255682,14.7406447 L12.842607,14.7406447 L12.842607,17.0273485 L15.1255682,17.0273485 L15.1255682,14.7406447 Z M6.76276393,14.7406447 L4.47980276,14.7406447 L4.47980276,17.0273485 L6.76276393,17.0273485 L6.76276393,14.7406447 Z M10.9441661,10.5523878 L8.66120488,10.5523878 L8.66120488,12.8390916 L10.9441661,12.8390916 L10.9441661,10.5523878 Z M15.1255682,10.5523878 L12.842607,10.5523878 L12.842607,12.8390916 L15.1255682,12.8390916 L15.1255682,10.5523878 Z M6.76276393,10.5523878 L4.47980276,10.5523878 L4.47980276,12.8390916 L6.76276393,12.8390916 L6.76276393,10.5523878 Z" id="Combined-Shape"></path>
                </g>
            </g>
        </g>
    </g>
</svg>