<?xml version="1.0" encoding="UTF-8"?>
<svg width="26px" height="24px" viewBox="0 0 26 24" version="1.1" xmlns="http://www.w3.org/2000/svg" xmlns:xlink="http://www.w3.org/1999/xlink">
    <title>Recycling icon</title>
    <g id="Page-1" stroke="none" stroke-width="1" fill="none" fill-rule="evenodd">
        <g id="map-icons_fill" transform="translate(-153.000000, -182.000000)">
            <g id="מתקני-מיחזור-אייקון" transform="translate(143.000000, 171.000000)">
                <g id="Recycling-icon" transform="translate(10.000000, 11.000000)">
                    <rect id="Rectangle-path" x="0" y="0" width="25.5" height="24"></rect>
                    <path d="M4.65277579,16.9961989 C4.40752944,17.4276186 4.21232813,18.0767383 4.21232813,18.485746 C4.21232813,18.5807007 4.21232813,18.7014738 4.2363439,18.8690071 L1.17118554,13.7055617 C1.07307236,13.5380285 1,13.2976656 1,13.0811131 C1,12.8642737 1.07307236,12.6006741 1.17118554,12.432854 L2.64270025,9.9109621 L1,8.99906767 L6.92553711,8.03735352 L8.94423911,13.4890092 L7.2775231,12.5524797 L4.65277579,16.9961989 Z M7.00723593,2.44250009 C7.47272441,1.64911966 8.23350428,1.21683939 9.16448124,1.21683939 C10.1705075,1.21683939 10.9553397,1.6737548 11.5189048,2.60917273 L12.352757,3.97798257 L9.75976563,8.4519043 L5.07691124,5.78571575 L7.00723593,2.44250009 Z M4.79990895,18.6532793 C4.79990895,18.2689067 4.97208295,17.6198229 5.2173293,17.2119267 L6.00113648,15.8431169 L11.1223145,15.8431169 L11.1223145,21.150823 L7.3495704,21.150823 C5.9521165,21.150823 4.79990895,20.0220533 4.79990895,18.6532793 Z M12.0094341,2.29737871 C11.6420222,1.6737548 11.1515295,1.24036289 10.5629236,1 L16.5941753,1 C17.1337246,1 17.5501565,1.21683939 17.7964279,1.6255603 L19.291995,4.1230681 L20.9098008,3.18567791 L18.7734375,8.66357422 L12.9904195,7.67644422 L14.6331197,6.76454979 L12.0094341,2.29737871 Z M23.1661478,15.3155592 L20.1250052,20.5024922 C19.8797588,20.9103884 19.4393112,21.1507512 18.9246197,21.1507512 L16.054626,21.1507512 L16.054626,23 L12.3344727,18.5086599 L16.054626,14.0173199 L16.054626,15.8912396 L21.3032054,15.8912396 C22.037956,15.8912755 22.6516027,15.6991071 23.1661478,15.3155592 Z M23.655652,11.5680425 C23.8768826,11.9524151 24,12.3603113 24,12.7928425 C24,13.6576541 23.4354099,14.5703733 22.6516027,15.0018288 C22.2832389,15.1951447 21.7676688,15.3155951 21.2541488,15.3155951 L19.6344759,15.3155951 L17.0583496,10.9553223 L21.7413504,8.33732822 L23.655652,11.5680425 Z" id="Shape" fill="#2B393F" fill-rule="nonzero"></path>
                </g>
            </g>
        </g>
    </g>
</svg>