<?xml version="1.0" encoding="UTF-8"?>
<svg width="17px" height="24px" viewBox="0 0 17 24" version="1.1" xmlns="http://www.w3.org/2000/svg" xmlns:xlink="http://www.w3.org/1999/xlink">
    <title>Residents make a city</title>
    <g id="Page-1" stroke="none" stroke-width="1" fill="none" fill-rule="evenodd">
        <g id="map-icons_fill" transform="translate(-254.000000, -968.000000)" fill="#2B393F">
            <g id="תושבים-עושים-עיר-אייקון" transform="translate(240.000000, 957.000000)">
                <g id="Residents-make-a-city" transform="translate(14.000000, 11.000000)">
                    <path d="M11.947577,1.75751667 C11.9484232,1.75916981 11.9492663,1.76082453 11.9501063,1.76248082 L12.1632166,2.18267445 C12.4539918,2.75600134 13.0026306,3.15461076 13.6377513,3.2539866 L14.1032339,3.32681957 C14.9158816,3.45397264 15.4715848,4.2158317 15.3444317,5.02847939 C15.3441446,5.0303142 15.3438541,5.03214847 15.3435601,5.03398219 L15.2689864,5.49918907 C15.1672353,6.13393361 15.3767967,6.7788972 15.8322085,7.23260855 L16.1659817,7.56513546 C16.7486888,8.14566679 16.7504526,9.08865784 16.1699213,9.67136494 L16.1659817,9.67530451 L15.8322085,10.0078314 C15.3767967,10.4615428 15.1672353,11.1065064 15.2689864,11.7412509 L15.3435601,12.2064578 C15.4737523,13.0186241 14.920903,13.7825567 14.1087367,13.9127488 C14.106903,13.9130428 14.1050687,13.9133333 14.1032339,13.9136204 L13.6377513,13.9864534 C13.0026306,14.0858292 12.4539918,14.4844386 12.1632166,15.0577655 L11.9501063,15.4779591 C11.5780546,16.2115406 10.6817619,16.5046183 9.94818045,16.1325666 C9.94652416,16.1317266 9.94486944,16.1308835 9.9432163,16.1300372 L9.52382283,15.9153565 C8.95158771,15.6224387 8.27343285,15.6224387 7.70119773,15.9153565 L7.28180426,16.1300372 C6.54961976,16.5048306 5.65223693,16.2151078 5.27744359,15.4829233 C5.27659738,15.4812702 5.27575426,15.4796154 5.27491423,15.4779591 L5.06180393,15.0577655 C4.77102879,14.4844386 4.22238999,14.0858292 3.58726925,13.9864534 L3.12178666,13.9136204 C2.30913897,13.7864673 1.75343578,13.0246083 1.88058885,12.2119606 C1.88087594,12.2101258 1.88116646,12.2082915 1.88146041,12.2064578 L1.95603418,11.7412509 C2.05778523,11.1065064 1.84822386,10.4615428 1.39281205,10.0078314 L1.05903886,9.67530451 C0.47633177,9.09477318 0.474567964,8.15178212 1.05509929,7.56907503 L1.05903886,7.56513546 L1.39281205,7.23260855 C1.84822386,6.7788972 2.05778523,6.13393361 1.95603418,5.49918907 L1.88146041,5.03398219 C1.75126822,4.22181585 2.30411751,3.45788332 3.11628386,3.32769113 C3.11811758,3.32739718 3.11995185,3.32710666 3.12178666,3.32681957 L3.58726925,3.2539866 C4.22238999,3.15461076 4.77102879,2.75600134 5.06180393,2.18267445 L5.27491423,1.76248082 C5.64696594,1.0288994 6.54325868,0.735821655 7.27684011,1.10787336 C7.2784964,1.10871339 7.28015112,1.10955651 7.28180426,1.11040272 L7.70119773,1.32508342 C8.27343285,1.61800127 8.95158771,1.61800127 9.52382283,1.32508342 L9.9432163,1.11040272 C10.6754008,0.735609392 11.5727836,1.02533217 11.947577,1.75751667 Z M8.61251028,4.72435468 C6.46088328,4.72435468 4.71664497,6.46859299 4.71664497,8.62021998 C4.71664497,10.771847 6.46088328,12.5160853 8.61251028,12.5160853 C10.7641373,12.5160853 12.5083756,10.771847 12.5083756,8.62021998 C12.5083756,6.46859299 10.7641373,4.72435468 8.61251028,4.72435468 Z" id="Combined-Shape"></path>
                    <path d="M4.97672954,16.1995143 C4.52900134,17.6816792 3.83708336,19.8154562 2.9009756,22.6008453 L5.45897074,21.7294503 C6.47648712,23.1700748 6.98524531,23.890387 6.98524531,23.890387 C6.98524531,23.890387 8.19302529,19.1381919 8.99826532,16.5168072 C8.43896484,16.3066021 7.92653937,16.771343 7.23594264,17.079153 C6.54534591,17.3869629 5.58895713,17.079153 4.97672954,16.1995143 Z" id="Path-37-Copy-3"></path>
                    <path d="M12.858861,15.5026727 C13.4509334,17.4774877 14.027979,19.4713199 14.5899979,21.4841694 L12.0320028,20.6127745 C11.0144864,22.0533989 10.5057282,22.7737112 10.5057282,22.7737112 C10.5057282,22.7737112 9.49199476,18.4490728 8.99826532,16.5168072 C9.7929045,16.7961297 10.6805998,17.3235891 11.4433979,16.9423057 C12.206196,16.5610223 12.1369243,16.3181281 12.858861,15.5026727 Z" id="Path-37-Copy-4"></path>
                </g>
            </g>
        </g>
    </g>
</svg>