<?xml version="1.0" encoding="UTF-8"?>
<svg width="25px" height="24px" viewBox="0 0 25 24" version="1.1" xmlns="http://www.w3.org/2000/svg" xmlns:xlink="http://www.w3.org/1999/xlink">
    <title>Seniors Community icon</title>
    <g id="Page-1" stroke="none" stroke-width="1" fill="none" fill-rule="evenodd">
        <g id="map-icons_fill" transform="translate(-154.000000, -75.000000)">
            <g id="מועדון-גיל-הזהב-אייקון" transform="translate(143.500000, 64.000000)">
                <g id="Seniors-Community-icon" transform="translate(11.000000, 11.000000)">
                    <g id="elderly-24px" transform="translate(12.500000, 12.000000) scale(-1, 1) translate(-12.500000, -12.000000) translate(5.000000, 1.500000)" fill="#2B393F" fill-rule="nonzero">
                        <path d="M8.2,3.84 C9.256,3.84 10.12,2.976 10.12,1.92 C10.12,0.864 9.256,0 8.2,0 C7.144,0 6.28,0.864 6.28,1.92 C6.28,2.976 7.144,3.84 8.2,3.84 Z" id="Path"></path>
                        <path d="M14.6456299,10.5 L14.6456299,20.58 L13.48,20.64 L13.48,10.8576 C13.48,10.5888 13.2688,10.3776 13,10.3776 C12.7312,10.3776 12.52,10.5888 12.52,10.8576 L12.52,11.52 L11.56,11.52 L11.56,10.8576 C10.1584,10.4928 9.2192,9.61247871 8.4416,8.43167871 C8.144,9.26687871 7.9712,10.1404787 7.9712,11.0332787 C7.9712,11.2540787 7.9904,11.4748787 8,11.6956787 L9.9041748,14.4 L9.9041748,20.64 L7.72,20.64 L7.72,15.84 L6.0112,13.4016 L5.8,16.8 L2.92,20.64 L1.13598633,19.2939453 L3.57910156,16.1213379 L3.57910156,11.0045379 C3.57910156,9.90053789 3.75190156,8.80613789 4.05910156,7.75013789 L2.54736328,8.29727871 L2.54736328,11.6956787 L0.763349609,11.6956787 L0.763349609,6.97949219 L6.5153748,4.06742441 L6.5153748,4.07702441 C7.0817748,3.77942441 7.7825748,3.76022441 8.3777748,4.10582441 C8.7233748,4.30742441 8.9825748,4.59542441 9.1457748,4.92182441 L9.9041748,6.52502441 C10.5281748,7.78262441 11.5024,9.12 13,9.12 C13.7968,9.12 14.6456299,9.7032 14.6456299,10.5 Z" id="Path"></path>
                    </g>
                    <rect id="Rectangle-path" x="0" y="0" width="24" height="24"></rect>
                </g>
            </g>
        </g>
    </g>
</svg>