<?xml version="1.0" encoding="UTF-8"?>
<svg width="23px" height="26px" viewBox="0 0 23 26" version="1.1" xmlns="http://www.w3.org/2000/svg" xmlns:xlink="http://www.w3.org/1999/xlink">
    <title>social-service-icon </title>
    <g id="Page-1" stroke="none" stroke-width="1" fill="none" fill-rule="evenodd">
        <g id="map-icons_fill" transform="translate(-158.000000, -616.000000)">
            <g id="שרותים-חברתיים-אייקון-2" transform="translate(146.036621, 605.000000)">
                <g id="social-service-icon-" transform="translate(12.290527, 11.500000)">
                    <g id="Group-2" transform="translate(0.572852, 9.000000)">
                        <g id="social-service-icon-copy-3" transform="translate(12.427148, 0.000000)">
                            <g id="Group-18" transform="translate(0.000000, 0.145295)"></g>
                        </g>
                        <g id="social-service-icon-copy-2" transform="translate(4.000000, 7.500000) scale(-1, 1) translate(-4.000000, -7.500000) ">
                            <g id="Group-18-Copy" transform="translate(0.000000, 0.145295)"></g>
                        </g>
                        <path d="M1.58749081,0.595947266 C1.58749081,-0.00492298656 0.401621129,-0.00492298656 0.401621129,0.595947266 L0.260342377,5.39815525 C0.260342377,6.19988118 0.548794033,6.97488291 1.06673443,7.579783 L3.68340917,11.4202199 C4.04206487,11.7580901 4.13008505,12.0573587 4.13008505,12.5103975 L4.13008505,13.2096806 L7.73451383,13.2096806 L7.73896786,11.5459933 C7.73896786,10.9126722 7.79071948,10.0657697 6.99768952,9.23498648 L5.62631882,5.72145192 C5.46279219,5.56386399 5.24672883,5.43265737 5.02120663,5.47775269 C4.59056299,5.56386399 4.48242509,5.86737452 4.48242509,6.3467133 C4.48242509,6.55393188 4.59056299,6.75373951 4.64073389,6.95881764 L4.68574224,8.18998551 C4.82933178,8.35817828 3.34793799,6.67639313 3.10189116,6.3467133 C2.85584432,6.01703347 2.2661536,4.55813374 2.10702206,3.76489258 L1.58749081,0.595947266 Z" id="Path-Copy" fill="#2B393F" fill-rule="nonzero"></path>
                        <path d="M14.0561523,0.595947266 C14.0561523,-0.00492298656 12.8702827,-0.00492298656 12.8702827,0.595947266 L12.7290039,5.39815525 C12.7290039,6.19988118 13.0174556,6.97488291 13.535396,7.579783 L16.1520707,11.4202199 C16.5107264,11.7580901 16.5987466,12.0573587 16.5987466,12.5103975 L16.5987466,13.2096806 L20.2031754,13.2096806 L20.2076294,11.5459933 C20.2076294,10.9126722 20.259381,10.0657697 19.4663511,9.23498648 L18.0949804,5.72145192 C17.9314537,5.56386399 17.7153904,5.43265737 17.4898682,5.47775269 C17.0592245,5.56386399 16.9510866,5.86737452 16.9510866,6.3467133 C16.9510866,6.55393188 17.0592245,6.75373951 17.1093954,6.95881764 L17.1544038,8.18998551 C17.2979933,8.35817828 15.8165995,6.67639313 15.5705527,6.3467133 C15.3245059,6.01703347 14.7348151,4.55813374 14.5756836,3.76489258 L14.0561523,0.595947266 Z" id="Path-Copy" fill="#2B393F" fill-rule="nonzero" transform="translate(16.468662, 6.677488) scale(-1, 1) translate(-16.468662, -6.677488) "></path>
                    </g>
                    <g id="Group-3" transform="translate(3.448447, 0.418213)" fill="#2B393F" fill-rule="nonzero">
                        <path d="M7.25,4.71428571 C5.95357143,4.71428571 4.89285714,3.65357143 4.89285714,2.35714286 C4.89285714,1.06071429 5.95357143,0 7.25,0 C8.54642857,0 9.60714286,1.06071429 9.60714286,2.35714286 C9.60714286,3.65357143 8.54642857,4.71428571 7.25,4.71428571 Z" id="Path"></path>
                        <path d="M11.0876944,6.71492222 C12.1751251,7.23251822 13.6513345,8.39723221 14.4462346,9.42677307 C14.637995,9.67513791 12.8106479,11.2790398 12.6423383,11.001055 C12.0412554,10.0082899 10.7857143,9.60311724 10.7857143,9.65818569 C10.7857143,11.3284509 10.7857143,12.7551333 10.7857143,13.9382327 C10.7857143,14.633809 10.3170355,15.4877315 9.37967791,16.5 L5.27762713,16.5 C4.23539952,15.2479384 3.71428571,14.3088921 3.71428571,13.6828613 C3.71428571,12.763654 3.71428571,11.3848431 3.71428571,9.54642857 C3.36071429,9.66428571 3.125,9.78214286 3.00714286,9.9 C2.62806154,10.1932516 2.10139734,10.5776573 1.74589501,11.5115774 C1.62067218,11.8405432 0.0445687018,9.53358086 0.315639045,9.16135064 C0.630007141,8.72966452 1.0155054,8.31255138 1.48678571,7.90821429 C2.78321429,6.8475 4.89285714,5.89285714 7.25,5.89285714 C9.60714286,5.89285714 10.0002638,6.19732622 11.0876944,6.71492222 Z" id="Path"></path>
                    </g>
                </g>
            </g>
        </g>
    </g>
</svg>