<?xml version="1.0" encoding="UTF-8"?>
<svg width="25px" height="21px" viewBox="0 0 25 21" version="1.1" xmlns="http://www.w3.org/2000/svg" xmlns:xlink="http://www.w3.org/1999/xlink">
    <title>Supermarket areas on Shabat icon</title>
    <g id="Page-1" stroke="none" stroke-width="1" fill="none" fill-rule="evenodd">
        <g id="map-icons_fill" transform="translate(-151.000000, -1185.000000)" fill="#2B393F" fill-rule="nonzero">
            <g id="איזורי-מכסות-מרכולים-בשבת-אייקון" transform="translate(140.536621, 1173.000000)">
                <g id="Supermarket-areas-on-Shabat-icon" transform="translate(11.000000, 12.500000)">
                    <path d="M20.0708008,19.6053143 C20.6040039,19.6053143 21.0737305,19.5376059 21.4799805,19.4021893 C21.8862305,19.2667726 22.227946,19.0594158 22.505127,18.780119 C22.7823079,18.5008221 22.9917806,18.1485272 23.1335449,17.7232342 C23.2753092,17.2979412 23.3461914,16.7933026 23.3461914,16.2093182 L23.3461914,16.2093182 L23.3461914,12.870451 L21.2705078,12.870451 L21.2705078,16.342619 C21.2705078,16.710783 21.2271322,16.9985434 21.1403809,17.2059002 C21.0536296,17.413257 20.9298503,17.5677166 20.769043,17.6692791 C20.6082357,17.7708416 20.4156901,17.8343182 20.1914062,17.8597088 C19.9671224,17.8850994 19.7195638,17.8977947 19.4487305,17.8977947 L19.4487305,17.8977947 L17.5571289,17.8977947 L17.1000977,12.870451 L14.9482422,12.870451 L15.5703125,19.6053143 L20.0708008,19.6053143 Z M20.3056641,16.7996502 L20.3056641,12.870451 L18.3378906,12.870451 L18.3378906,16.7996502 L20.3056641,16.7996502 Z M14.2563477,19.6053143 L14.2563477,17.8660565 L13.4501953,17.8660565 L13.4501953,12.870451 L8.65771484,12.870451 L8.65771484,14.6287518 L11.203125,14.6287518 L11.203125,17.8660565 L8.63232422,17.8660565 L8.64501953,19.6053143 L14.2563477,19.6053143 Z M3.83984375,19.6053143 L3.83984375,14.6097088 L4.43652344,14.6097088 C4.65234375,14.6097088 4.82267253,14.6372153 4.94750977,14.6922283 C5.07234701,14.7472414 5.16650391,14.8265871 5.22998047,14.9302654 C5.29345703,15.0339438 5.33365885,15.1630128 5.35058594,15.3174725 C5.36751302,15.4719321 5.37597656,15.6507244 5.37597656,15.8538494 L5.37597656,15.8538494 L5.36328125,19.6053143 L7.58496094,19.6053143 L7.58496094,15.7268963 C7.58496094,15.2994874 7.54899089,14.9101645 7.47705078,14.5589276 C7.40511068,14.2076906 7.28027344,13.9072348 7.10253906,13.6575604 C6.92480469,13.4078859 6.68465169,13.2142824 6.38208008,13.0767498 C6.07950846,12.9392173 5.69970703,12.870451 5.24267578,12.870451 L5.24267578,12.870451 L1.25634766,12.870451 L1.25634766,14.6287518 L1.95458984,14.6287518 L1.95458984,17.8533611 L0.862792969,17.8533611 L0.862792969,19.6053143 L3.83984375,19.6053143 Z" id="שבת"></path>
                    <g id="grocery_1" transform="translate(6.054199, 0.182772)">
                        <path d="M10.84238,0.0231065469 C10.84238,0.0231065469 9.62717053,-0.0138639281 9.14062558,0.462130937 C8.67252783,0.91732991 8.48113811,1.26623877 8.48113811,2.21360719 L0.34822792,2.21360719 L1.56804915,6.43286264 L1.57957865,6.45134788 C1.78480378,7.0267009 2.31977264,7.44261874 2.958507,7.46572529 L2.97003651,7.4703466 L8.65408063,7.4703466 L8.65408063,7.64595635 C8.65408063,7.64595635 8.65408063,7.90937099 8.47883221,8.2605905 C8.30358379,8.61181001 8.21595958,8.78510911 7.5172718,8.78510911 L1.83553358,8.78510911 C0.961597387,8.78510911 0.961597387,10.0998716 1.83553358,10.0998716 L2.8847182,10.0998716 L2.97234241,10.0998716 L7.25670507,10.0998716 L7.34432928,10.0998716 L7.43425939,10.0998716 C8.48344401,10.0998716 9.26975599,9.48523748 9.53262862,8.87291399 C9.79550125,8.2605905 9.79550125,7.73376123 9.79550125,7.73376123 L9.79550125,7.4703466 L9.79550125,2.21360719 C9.79550125,1.75378691 9.99611457,1.33786906 10.4065648,1.33786906 L10.888498,1.33786906 C11.2505243,1.33786906 11.5433736,1.04441592 11.5433736,0.681643132 C11.5433736,0.318870347 11.2482184,0.0231065469 10.8861921,0.0231065469 L10.84238,0.0231065469 Z M7.34432928,10.1021823 C6.81858403,10.1021823 6.47039309,10.4534018 6.47039309,10.9779204 C6.47039309,11.502439 6.82088993,11.8536585 7.34432928,11.8536585 C7.86776864,11.8536585 8.21826548,11.502439 8.21826548,10.9779204 C8.21826548,10.4534018 7.86776864,10.1021823 7.34432928,10.1021823 Z M2.97003651,10.1021823 C2.44429125,10.1021823 2.09610031,10.4534018 2.09610031,10.9779204 C2.09610031,11.502439 2.44659715,11.8536585 2.97003651,11.8536585 C3.49347586,11.8536585 3.8439727,11.502439 3.8439727,10.9779204 C3.8439727,10.4534018 3.49578176,10.1021823 2.97003651,10.1021823 Z" id="Shape"></path>
                    </g>
                </g>
            </g>
        </g>
    </g>
</svg>