<?xml version="1.0" encoding="UTF-8"?>
<svg width="24px" height="24px" viewBox="0 0 24 24" version="1.1" xmlns="http://www.w3.org/2000/svg" xmlns:xlink="http://www.w3.org/1999/xlink">
    <title>Train Station icon</title>
    <g id="Page-1" stroke="none" stroke-width="1" fill="none" fill-rule="evenodd">
        <g id="map-icons_fill" transform="translate(-57.000000, -1183.000000)">
            <g id="תחנת-רכבת" transform="translate(46.000000, 1172.000000)">
                <g id="Train-Station-icon" transform="translate(11.000000, 11.000000)">
                    <g id="Group-8">
                        <polygon id="Path" points="0 0 24 0 24 24 0 24"></polygon>
                        <path d="M17.2511616,6.00065725 C21.0022153,6.02071933 24,6.51544622 24,9.57894737 L24,9.57894737 L24,18.0789474 C24,19.8057895 22.62625,21.2105263 20.9375,21.2105263 L20.9375,21.2105263 L22.25,22.5526316 L22.25,23 L11.75,23 L11.75,22.5526316 L13.0625,21.2105263 C11.37375,21.2105263 10,19.8057895 10,18.0789474 L10,18.0789474 L10,9.57894737 C10,6.44736842 13.1325,6 17,6 Z M13.0625,16.7368421 C12.33625,16.7368421 11.75,17.3363158 11.75,18.0789474 C11.75,18.8215789 12.33625,19.4210526 13.0625,19.4210526 C13.78875,19.4210526 14.375,18.8215789 14.375,18.0789474 C14.375,17.3363158 13.78875,16.7368421 13.0625,16.7368421 Z M20.9375,16.7368421 C20.21125,16.7368421 19.625,17.3363158 19.625,18.0789474 C19.625,18.8215789 20.21125,19.4210526 20.9375,19.4210526 C21.66375,19.4210526 22.25,18.8215789 22.25,18.0789474 C22.25,17.3363158 21.66375,16.7368421 20.9375,16.7368421 Z M16.125,9.57894737 L11.75,9.57894737 L11.75,14.0526316 L16.125,14.0526316 L16.125,9.57894737 Z M22.25,9.57894737 L17.875,9.57894737 L17.875,14.0526316 L22.25,14.0526316 L22.25,9.57894737 Z" id="Combined-Shape" fill="#2B393F"></path>
                    </g>
                    <g id="Group-4" transform="translate(0.000000, 1.000000)" fill="#2B393F">
                        <circle id="Oval" cx="4" cy="4" r="4"></circle>
                        <rect id="Rectangle" x="1" y="20" width="6" height="2"></rect>
                        <rect id="Rectangle" x="3" y="7" width="2" height="14"></rect>
                    </g>
                </g>
            </g>
        </g>
    </g>
</svg>